<svg xmlns="http://www.w3.org/2000/svg" width="210mm" height="297mm" viewBox="0 0 210 297"><circle cx="105.449" cy="132.763" r="101.442" style="fill:#000;stroke:#161616;stroke-width:2.64583;paint-order:stroke markers fill"/><path d="M73.295 190.744c.743-.661 9.794-15.888 20.113-33.837a44418.452 44418.452 0 0 1 23.286-40.47c2.489-4.309 4.831-7.864 5.206-7.9.936-.091 15.54 25.21 14.913 25.837-.277.277-4.308.59-8.959.697l-8.455.194-15.821 27.318c-9.309 16.071-15.66 27.738-15.43 28.34.58 1.511 99.21 1.555 99.789.044.208-.541-5.979-11.964-13.86-25.592a27695.466 27695.466 0 0 1-22.147-38.354c-4.35-7.558-9.361-16.214-11.136-19.237a3708.17 3708.17 0 0 1-10.652-18.379c-4.083-7.085-7.77-12.882-8.192-12.882-.422 0-4.826 7.034-9.787 15.63a80962.25 80962.25 0 0 1-25.303 43.8c-27.777 48.046-31.399 54.516-30.935 55.266.273.442 3.499.727 8.234.727 6.44 0 8.017-.207 9.136-1.202zm42.084-15.88c0-1.351 21.847-38.225 22.648-38.225.77 0 22.688 36.995 22.694 38.303.001.283-10.2.515-22.67.515-12.47 0-22.672-.267-22.672-.593z" style="fill:#8e8e8e;fill-opacity:1;stroke-width:.687041"/><path d="M94.09 199.527c-4.324.11-9.287-.023-11.028-.301-1.742-.275-5.158-1.033-7.591-1.684-2.434-.65-6.346-1.99-8.694-2.973-2.348-.985-5.886-2.759-7.862-3.943-1.976-1.184-5.604-3.77-8.061-5.75-2.458-1.977-5.814-5.182-7.46-7.121-1.644-1.94-3.932-4.913-5.082-6.608-1.15-1.696-3.08-5.05-4.289-7.454-1.208-2.403-2.833-6.307-3.61-8.675-.778-2.368-1.775-6.35-2.215-8.849-.44-2.5-.8-7.652-.8-11.451 0-3.799.367-9.01.815-11.58.448-2.57 1.448-6.559 2.221-8.863.774-2.304 2.387-6.15 3.586-8.547 1.199-2.396 3.296-5.942 4.66-7.88 1.365-1.94 3.716-4.958 5.224-6.71 1.509-1.751 4.695-4.757 7.08-6.68 2.386-1.922 6.046-4.501 8.134-5.731 2.087-1.23 5.658-3.023 7.935-3.985 2.278-.962 6.792-2.43 10.031-3.263 5.222-1.343 6.877-1.517 14.567-1.535 5.277-.016 10.162.273 12.47.729 2.088.413 5.992 1.478 8.676 2.367 2.684.89 6.71 2.543 8.947 3.674 2.236 1.13 5.896 3.334 8.133 4.896 2.236 1.562 6.179 4.983 8.76 7.601 2.582 2.619 6.18 7.018 7.998 9.776 1.817 2.758 3.304 5.216 3.304 5.462 0 .246-1.904.447-4.231.447-4.231 0-4.231 0-6.454-3.118-1.222-1.714-3.526-4.566-5.12-6.336-1.594-1.771-4.76-4.6-7.037-6.288-2.276-1.688-5.693-3.935-7.593-4.993-1.9-1.058-5.528-2.648-8.063-3.532-2.534-.884-6.316-1.947-8.404-2.361-2.314-.46-6.865-.729-11.657-.69-6.572.054-8.753.296-13.285 1.473-3.265.848-7.798 2.598-11.395 4.4-3.396 1.7-7.925 4.552-10.495 6.609-2.487 1.99-5.857 5.227-7.489 7.194-1.631 1.966-4.172 5.525-5.646 7.908-1.475 2.383-3.421 6.253-4.326 8.6-.905 2.346-2.116 6.496-2.692 9.222-.7 3.315-1.049 7.14-1.054 11.55-.005 3.627.342 8.431.772 10.675.43 2.245 1.514 6.184 2.41 8.755.897 2.57 2.511 6.248 3.588 8.174 1.077 1.925 3.413 5.432 5.192 7.793 1.78 2.36 4.998 5.815 7.154 7.676 2.156 1.86 5.224 4.218 6.818 5.239 1.594 1.02 4.888 2.809 7.32 3.974 2.432 1.165 6.836 2.73 9.787 3.477 2.951.747 7.736 1.514 10.633 1.703 3.155.207 7.416.077 10.63-.327 2.949-.37 7.314-1.282 9.7-2.026 2.385-.743 6.274-2.314 8.642-3.49 2.367-1.175 6.237-3.528 8.599-5.23 2.362-1.7 5.723-4.619 7.47-6.486 1.746-1.866 4.207-4.858 5.47-6.647 2.294-3.254 2.294-3.254 6.525-3.254 2.327 0 4.23.126 4.23.28 0 .155-.996 1.922-2.215 3.928-1.218 2.006-3.567 5.299-5.218 7.317-1.652 2.02-4.37 4.92-6.04 6.446-1.67 1.527-4.75 3.995-6.846 5.485-2.095 1.49-6.3 3.912-9.346 5.383-3.328 1.606-8.088 3.327-11.929 4.311-5.32 1.364-7.709 1.672-14.253 1.837zm-.542-13.529c-4.82.128-8.523-.061-10.844-.545-1.939-.408-5.086-1.268-6.994-1.913-1.909-.645-4.959-1.92-6.778-2.83-1.82-.913-4.772-2.701-6.561-3.976-1.79-1.275-5.099-4.236-7.354-6.579-2.256-2.343-5.272-6.154-6.704-8.47-1.43-2.316-3.286-5.976-4.121-8.133-.836-2.158-1.936-5.875-2.445-8.261-.57-2.673-.932-6.835-.943-10.844-.013-4.953.27-7.672 1.19-11.387.665-2.684 2.388-7.32 3.83-10.302 1.44-2.982 3.825-7.008 5.297-8.947 1.473-1.938 4.24-4.97 6.15-6.74 1.91-1.768 5.168-4.312 7.24-5.652 2.07-1.34 5.609-3.214 7.862-4.163 2.252-.949 5.803-2.18 7.89-2.736 2.954-.787 5.662-1.007 12.2-.989 6.876.015 9.194.237 12.743 1.198 2.385.646 6.777 2.39 9.76 3.874 2.982 1.484 7.084 3.958 9.115 5.497 2.031 1.54 5.19 4.537 7.019 6.662 3.325 3.863 3.325 3.863-21.044 4.17-21.338.268-24.741.426-27.352 1.271-1.64.531-4.426 1.73-6.19 2.663-1.763.934-4.714 3.22-6.556 5.081-1.843 1.861-4.099 4.795-5.014 6.52-.915 1.724-2.09 4.6-2.61 6.389-.57 1.961-.945 5.083-.945 7.862 0 2.787.373 5.886.945 7.839.52 1.776 1.513 4.35 2.207 5.719.694 1.369 2.319 3.748 3.612 5.287 1.293 1.539 3.449 3.626 4.79 4.639 1.343 1.012 3.417 2.338 4.61 2.945 1.193.607 3.51 1.542 5.15 2.077 2.623.856 5.921 1.01 27.353 1.28 24.37.307 24.37.307 21.044 4.17-1.83 2.125-4.988 5.122-7.02 6.662-2.03 1.539-6.132 4.013-9.114 5.497-2.983 1.484-7.375 3.21-9.76 3.835-3.06.801-6.496 1.193-11.658 1.33z" style="fill:#feffff;fill-opacity:1;stroke-width:.542216"/></svg>