<svg width="72" height="83" viewBox="0 0 72 83" fill="none" xmlns="http://www.w3.org/2000/svg">
<path id="Vector" d="M66.9884 16.8666L41.015 1.44638C39.4661 0.53081 37.7313 0.0695801 36.0034 0.0695801C34.2755 0.0695801 32.5408 0.53081 30.9919 1.45327L5.01157 16.8735C1.91376 18.7115 0 22.1122 0 25.7952V56.6356C0 60.3186 1.90687 63.7193 5.01157 65.5573L30.985 80.9775C32.5339 81.9 34.2618 82.3543 35.9966 82.3543C37.7244 82.3543 39.4592 81.8931 41.0081 80.9775L66.9884 65.5573C70.0862 63.7193 72 60.3117 72 56.6356V25.7883C72 22.1122 70.0931 18.7046 66.9884 16.8666V16.8666ZM46.8733 65.0203L46.9146 67.237C46.9146 67.5055 46.7425 67.8084 46.536 67.9185L45.2211 68.6758C45.0146 68.779 44.8356 68.6551 44.8356 68.3866L44.815 66.2044C43.6929 66.6725 42.5501 66.7827 41.8273 66.4935C41.6896 66.4384 41.6277 66.2388 41.6828 66.0048L42.1578 64.0015C42.1991 63.8432 42.2817 63.6848 42.3918 63.5885C42.4331 63.5472 42.4744 63.5196 42.5157 63.499C42.5914 63.4577 42.6672 63.4508 42.7291 63.4783C43.5139 63.7399 44.5121 63.616 45.4759 63.1341C46.7012 62.5146 47.5204 61.2617 47.5066 60.0225C47.4929 58.8936 46.8871 58.4323 45.407 58.4186C43.5208 58.4254 41.7585 58.0537 41.7309 55.2726C41.7103 52.9871 42.8943 50.6052 44.7806 49.1045L44.7599 46.8672C44.7599 46.5918 44.9251 46.2889 45.1385 46.1788L46.4121 45.3665C46.6186 45.2632 46.7976 45.394 46.7976 45.6625L46.8182 47.8998C47.7545 47.528 48.5668 47.4248 49.3034 47.5969C49.4617 47.6382 49.5374 47.8585 49.4686 48.1132L48.9729 50.0958C48.9316 50.2472 48.849 50.3987 48.7458 50.495C48.7074 50.5337 48.6633 50.5662 48.615 50.5914C48.5461 50.6258 48.4842 50.6327 48.4222 50.6258C48.0849 50.5501 47.2864 50.378 46.0266 51.0113C44.7048 51.6791 44.2436 52.8287 44.2505 53.6824C44.2643 54.7012 44.7806 55.011 46.5842 55.0385C48.9867 55.0798 50.0193 56.1262 50.0469 58.5425C50.0813 60.9106 48.8146 63.4645 46.8733 65.0203V65.0203ZM60.4899 61.2961C60.4899 61.5026 60.4624 61.6954 60.2903 61.7917L53.7229 65.7845C53.5508 65.8877 53.4131 65.7982 53.4131 65.5917V63.8982C53.4131 63.6917 53.537 63.5816 53.7092 63.4783L60.1801 59.6095C60.3522 59.5062 60.4899 59.5957 60.4899 59.8023V61.2961V61.2961ZM65.0058 23.372L40.4299 38.5513C37.3665 40.3411 35.1085 42.3512 35.1016 46.048V76.3308C35.1016 78.5406 35.9966 79.9724 37.3665 80.3924C36.919 80.4681 36.4578 80.5232 36.0034 80.5232C34.5647 80.5232 33.1466 80.1308 31.9006 79.3942L5.92714 63.974C3.38694 62.4664 1.8105 59.6508 1.8105 56.6287V25.7883C1.8105 22.7662 3.38694 19.9506 5.92714 18.443L31.9074 3.02283C33.1535 2.28624 34.5716 1.89385 36.0103 1.89385C37.4491 1.89385 38.8672 2.28624 40.1132 3.02283L66.0935 18.443C68.2344 19.7166 69.6801 21.9126 70.0862 24.3839C69.212 22.5459 67.2707 22.0503 65.0058 23.372Z" fill="#7D7D7D"/>
</svg>
