<?xml version="1.0" encoding="UTF-8" standalone="no"?>
<!-- Created with Inkscape (http://www.inkscape.org/) -->

<svg
   version="1.1"
   id="svg1"
   width="1200"
   height="1200"
   viewBox="0 0 1200 1200"
   sodipodi:docname="fiverr-logo-F788D846EE-seeklogo.com-transformed.png"
   inkscape:export-filename="../WebDev/myPlace/carm1nes_home_page_3.0/public/icons/fiverr_logo.svg"
   inkscape:export-xdpi="96"
   inkscape:export-ydpi="96"
   xmlns:inkscape="http://www.inkscape.org/namespaces/inkscape"
   xmlns:sodipodi="http://sodipodi.sourceforge.net/DTD/sodipodi-0.dtd"
   xmlns="http://www.w3.org/2000/svg"
   xmlns:svg="http://www.w3.org/2000/svg">
  <defs
     id="defs1" />
  <sodipodi:namedview
     id="namedview1"
     pagecolor="#ffffff"
     bordercolor="#000000"
     borderopacity="0.25"
     inkscape:showpageshadow="2"
     inkscape:pageopacity="0.0"
     inkscape:pagecheckerboard="0"
     inkscape:deskcolor="#d1d1d1" />
  <path
     style="fill:#000000;fill-opacity:1"
     d="m 572.05679,1198.7105 c -1.29348,-0.9075 -7.17733,-1.7854 -16.5,-2.4619 -7.9693,-0.5783 -21.91463,-1.9691 -30.98963,-3.0906 -9.075,-1.1215 -21.675,-2.9525 -28,-4.0688 -6.325,-1.1163 -15.775,-2.9155 -21,-3.9981 -5.225,-1.0826 -11.975,-2.5988 -15,-3.3692 -3.025,-0.7704 -11.35,-3.059 -18.5,-5.0857 -7.15,-2.0267 -15.925,-4.5573 -19.5,-5.6235 -3.575,-1.0662 -8.525,-2.5612 -11,-3.3223 -2.475,-0.7611 -7.65,-2.5552 -11.5,-3.9869 -3.85,-1.4316 -9.25,-3.4139 -12,-4.4049 -2.75,-0.9911 -9.05,-3.4515 -14,-5.4677 -4.95,-2.0161 -10.35,-4.2815 -12,-5.0342 -1.65,-0.7527 -5.475,-2.5024 -8.5,-3.8882 -3.025,-1.3859 -11.575,-5.4836 -19,-9.1062 -7.425,-3.6225 -16.875,-8.4488 -21,-10.725 -4.125,-2.2763 -9.18547,-5.0865 -11.2455,-6.2451 -2.06002,-1.1585 -9.16027,-5.4814 -15.77833,-9.6064 -6.61806,-4.125 -13.80582,-8.625 -15.97279,-10 -2.16697,-1.375 -5.86672,-3.8406 -8.22166,-5.4791 -2.35495,-1.6384 -11.03172,-8.0121 -19.28172,-14.1638 -8.25,-6.1516 -19.91663,-15.3 -25.92585,-20.3297 -6.00921,-5.0297 -17.25921,-14.9314 -25,-22.0037 -7.74078,-7.0723 -18.80654,-17.9583 -24.59058,-24.1912 -5.78403,-6.2329 -13.69907,-14.93251 -17.58896,-19.33251 -3.8899,-4.4 -11.7575,-13.88183 -17.48357,-21.07072 -5.72607,-7.1889 -12.21104,-15.65894 -14.41104,-18.8223 -2.2,-3.16337 -6.49933,-9.20654 -9.55407,-13.42928 -3.05473,-4.22273 -7.3461,-10.3777 -9.536363,-13.6777 -2.19027,-3.3 -6.44094,-10.19161 -9.44594,-15.3147 -3.00499,-5.12308 -6.19551,-10.52308 -7.09003,-12 -0.89452,-1.47691 -3.24732,-5.52386 -5.22844,-8.99321 -1.98111,-3.46936 -7.1319,-13.36936 -11.44618,-22 -4.31428,-8.63065 -10.58509,-21.99209 -13.93514,-29.69209 -3.35004,-7.7 -7.08159,-16.7 -8.29233,-20 -1.21074,-3.3 -2.8129,-7.45317 -3.56036,-9.22926 -0.74745,-1.77609 -3.37295,-9.20109 -5.83444,-16.5 -2.46149,-7.29891 -6.470931,-20.24574 -8.909871,-28.77074 -2.43894,-8.525 -5.18372,-18.875 -6.09951,-23 -0.91579,-4.125 -2.30284,-9.75 -3.08232,-12.5 -0.77948,-2.75 -2.09913,-9.05 -2.93256,-14 -0.83343,-4.95 -2.826809,-17.775 -4.4297399,-28.5 -1.60294,-10.725 -3.20452,-24.225 -3.55909,-30 -0.35456,-5.775 -1.10833,-12.8625 -1.67504,-15.75 -0.56671,-2.8875 -1.44847,-5.25 -1.95948,-5.25 -0.55443993,0 -0.92909993,-14.11385 -0.92909993,-35 0,-19.82958 0.38645,-35 0.89158993,-35 0.49038,0 1.20253,-1.2375 1.58256,-2.75 0.38003,-1.5125 1.30582,-9.95 2.05731,-18.75 0.75149,-8.8 2.06239,-20.725 2.91311,-26.5 0.85073,-5.775 2.4893309,-15.9 3.6413399,-22.5 1.15202,-6.6 3.23503,-17.175 4.62892,-23.5 1.39388,-6.325 3.15327,-13.42823 3.90975,-15.78495 0.75648,-2.35672 1.37542,-4.93742 1.37542,-5.73489 0,-0.79747 1.14171,-5.39424 2.53713,-10.21505 1.39543,-4.82081 3.91653,-13.26511 5.60246,-18.76511 1.685931,-5.5 4.393701,-13.6 6.017261,-18 1.62356,-4.4 3.37745,-8.78139 3.89754,-9.73643 0.52008,-0.95504 0.94561,-2.20223 0.94561,-2.77153 0,-0.56931 1.53839,-4.97203 3.41864,-9.78383 1.88025,-4.8118 5.28523,-13.01461 7.56661,-18.22847 2.28139,-5.21386 7.59113,-16.45474 11.79943,-24.97974 4.20829,-8.525 10.02832,-19.70011 12.93338,-24.83359 2.90507,-5.13347 5.28194,-9.47985 5.28194,-9.65862 0,-0.17877 3.76533,-6.55366 8.36739,-14.16641 4.60207,-7.61276 11.620233,-18.56638 15.595913,-24.34138 3.97569,-5.775 9.32286,-13.36249 11.88261,-16.8611 2.55975,-3.4986 8.45501,-11.1486 13.10058,-17 4.64557,-5.85139 12.69855,-15.5889 17.89552,-21.6389 5.19697,-6.05 16.02105,-17.6771 24.05351,-25.838 8.03247,-8.16091 19.35808,-19.18591 25.16804,-24.5 5.80996,-5.3141 13.23496,-11.97053 16.5,-14.79206 3.26504,-2.82153 9.63832,-7.99653 14.16285,-11.5 4.52452,-3.50347 10.65959,-8.16994 13.63347,-10.36994 2.97389,-2.2 6.41688,-4.675 7.6511,-5.5 1.23422,-0.825 5.22415,-3.61038 8.86653,-6.18974 3.64237,-2.57935 7.97249,-5.64703 9.62249,-6.81705 1.65,-1.17002 7.275,-4.868101 12.5,-8.217969 5.225,-3.349869 15.125,-9.317809 22,-13.262088 6.875,-3.94428 19.7,-10.79477 28.5,-15.223312 8.8,-4.428543 21.625,-10.530113 28.5,-13.559045 6.875,-3.028932 16.325,-6.968634 21,-8.754892 4.675,-1.786258 11.27675,-4.311577 14.67056,-5.61182 3.3938,-1.300243 6.66241,-2.364078 7.26356,-2.364078 0.60116,0 1.87441,-0.411246 2.82945,-0.913881 0.95504,-0.502634 5.11143,-2.005385 9.23643,-3.339447 4.125,-1.334061 10.425,-3.350268 14,-4.480459 3.575,-1.130191 13.7,-3.862752 22.5,-6.072353 8.8,-2.20961 20.275,-4.91949 25.5,-6.02197 5.225,-1.10247 14.9,-2.91138 21.5,-4.0198 6.6,-1.10842 17.175,-2.7694001 23.5,-3.6910706 6.325,-0.92167 18.80522,-2.26585 27.73382,-2.98708 10.42909,-0.84243 17.36725,-1.87674 19.40364,-2.89263 2.65617,-1.32507004 7.56871,-1.58131004 30.31618,-1.58131004 17.25443,0 27.5209,0.37454 28.1742,1.02784004 0.56531,0.56531 3.69281,1.43619 6.95,1.93529 3.25719,0.4991 11.09716,1.19643 17.42216,1.54962 6.325,0.3532 14.425,1.08635 18,1.62924 3.575,0.54289 12.575,1.85087 20,2.9066405 7.425,1.0557601 18.225,2.8245001 24,3.9305401 5.775,1.10604 14.325,2.87613 19,3.93355 4.675,1.05741 11.875,2.83111 16,3.94156 4.125,1.11045 9.525,2.557791 12,3.216309 2.475,0.658517 8.325,2.326998 13,3.707734 4.675,1.380736 11.875,3.619311 16,4.97461 4.125,1.3553 11.775,4.002415 17,5.882479 5.225,1.880064 10.91801,4.081213 12.65113,4.891443 1.73312,0.81023 3.44945,1.473145 3.81408,1.473145 0.36462,0 3.12245,1.125 6.1285,2.5 3.00606,1.375 5.6744,2.5 5.92965,2.5 0.25525,0 5.07942,2.068377 10.72037,4.596393 5.64095,2.528016 13.63127,6.273795 17.75627,8.323953 4.125,2.050158 12.45,6.340492 18.5,9.534074 6.05,3.193583 11.675,6.310304 12.5,6.926047 0.825,0.615743 2.57415,1.724349 3.88701,2.463568 1.31285,0.73922 4.01285,2.242643 6,3.340942 1.98714,1.098298 5.86299,3.382593 8.61299,5.076209 2.75,1.693617 8.15,5.092111 12,7.55221 3.85,2.460088 12.175,8.098778 18.5,12.530398 6.325,4.43163 15.325,10.9917 20,14.57793 4.675,3.58623 12.325,9.67198 17,13.52387 4.675,3.8519 14.125,12.04481 20.99994,18.20646 6.875,6.16166 18.4035,17.19813 25.619,24.52548 7.2154,7.32735 18.6514,19.62246 25.4135,27.32246 6.7621,7.7 17.9946,21.65 24.961,31 6.9665,9.35 15.5726,21.275 19.1247,26.5 3.5521,5.225 9.8785,15.125 14.0587,22 4.1802,6.875 9.7497,16.325 12.3767,21 2.6271,4.675 8.2467,15.475 12.4881,24 4.2415,8.525 8.6223,17.525 9.7352,20 1.1128,2.475 4.5804,10.575 7.7056,18 3.1252,7.425 6.2588,15.075 6.9636,17 0.7048,1.925 2.4459,6.65 3.8691,10.5 1.4232,3.85 4.5879,13.525 7.0328,21.5 2.4448,7.975 5.3602,17.875 6.4786,22 1.1184,4.125 2.9424,11.325 4.0534,16 1.111,4.675 2.9207,12.55 4.0216,17.5 1.1008,4.95 2.9069,14.4 4.0134,21 1.1065,6.6 2.9064,18.3 3.9999,26 1.0935,7.7 2.2304,18.05 2.5265,23 0.2961,4.95 1.078,11.1375 1.7375,13.75 0.6596,2.6125 1.5641,4.75 2.0101,4.75 0.4461,0 0.811,15.23086 0.811,33.84636 0,28.67129 -0.2387,34.32483 -1.5611,36.97564 -0.9686,1.94171 -2.1025,9.30542 -2.9878,19.40364 -0.7847,8.9509 -1.9327,19.87436 -2.5512,24.27436 -0.6185,4.4 -1.7283,11.825 -2.4662,16.5 -0.7379,4.675 -2.2543,13.225 -3.3697,19 -1.1154,5.775 -2.9111,14.325 -3.9905,19 -1.0793,4.675 -2.5933,11.2 -3.3643,14.5 -0.7711,3.3 -2.1997,8.7 -3.1746,12 -0.975,3.3 -4.4452,14.325 -7.7115,24.5 -3.2664,10.175 -7.0728,21.425 -8.4586,25 -1.3859,3.575 -5.0232,12.8 -8.083,20.5 -3.0598,7.7 -10.158,23.225 -15.774,34.5 -5.6159,11.275 -13.7053,26.575 -17.9765,34 -4.2711,7.425 -9.222,15.75 -11.002,18.5 -1.7799,2.75 -6.6676,10.175 -10.8615,16.5 -4.1939,6.325 -11.1223,16.24033 -15.3964,22.03406 -4.2741,5.79373 -10.6674,14.11873 -14.2073,18.5 -3.5399,4.38127 -10.2887,12.46594 -14.9973,17.96594 -4.7087,5.5 -15.7624,17.37491 -24.5638,26.38871 -8.8015,9.0138 -23.4277,22.9159 -32.50264,30.8936 -9.075,7.9777 -21.45,18.2373 -27.5,22.7991 -6.05,4.5619 -15.5,11.6033 -21,15.6478 -5.5,4.0444 -12.7,9.0807 -16,11.1917 -3.3,2.111 -7.575,4.8366 -9.5,6.0569 -1.925,1.2203 -5.975,3.7867 -9,5.7031 -3.025,1.9164 -11.19579,6.7195 -18.15732,10.6737 -6.96152,3.9541 -20.91152,11.175 -31,16.0464 -10.08847,4.8714 -23.06768,10.8777 -28.84268,13.3473 -5.775,2.4696 -13.2,5.5007 -16.5,6.7358 -3.3,1.2352 -7.54796,2.9025 -9.43991,3.7052 -1.89195,0.8027 -10.89195,3.9351 -20,6.9608 -9.10805,3.0257 -19.93509,6.3935 -24.06009,7.4839 -4.125,1.0904 -11.775,3.0903 -17,4.4442 -5.225,1.3538 -12.65,3.1546 -16.5,4.0016 -3.85,0.8471 -11.64177,2.4047 -17.31503,3.4614 -5.67327,1.0566 -10.62327,2.1112 -11,2.3436 -0.37674,0.2323 -10.35997,1.5614 -22.18497,2.9535 -11.825,1.392 -27.49928,2.9828 -34.83174,3.5349 -8.95746,0.6745 -14.11365,1.5162 -15.71482,2.5653 -2.0156,1.3207 -6.5134,1.5534 -29.16826,1.509 -21.37115,-0.042 -27.19153,-0.3375 -28.79555,-1.4628 z M 556.91426,918.35335 c 1.52543,-1.26661 1.6529,-14.5836 1.6529,-172.67858 0,-154.39951 0.15509,-171.46121 1.57143,-172.87755 1.399,-1.399 9.34632,-1.57143 72.42857,-1.57143 62.86971,0 71.03304,0.1759 72.41754,1.5604 1.4017,1.4017 1.56045,18.97041 1.56097,172.75 5.8e-4,171.1896 5.8e-4,171.1896 2.11699,172.93569 1.97879,1.63255 7.07393,1.73009 78.35721,1.5 62.8803,-0.20297 76.53051,-0.4866 77.89404,-1.61853 1.52918,-1.26945 1.65325,-19.20942 1.65325,-239.05 0,-183.52699 -0.2734,-237.95096 -1.2,-238.87756 -0.92278,-0.92278 -36.23946,-1.2 -152.87756,-1.2 -120.1573,0 -151.87942,-0.25976 -152.64894,-1.25 -0.53426,-0.6875 -1.06897,-7.46763 -1.18823,-15.06695 -0.15258,-9.72221 0.28743,-16.39023 1.48471,-22.5 0.93586,-4.77568 2.79361,-10.86115 4.12835,-13.52326 1.33473,-2.66212 4.26063,-6.8297 6.50199,-9.26128 2.24136,-2.43159 6.66399,-5.99368 9.82807,-7.91576 3.16408,-1.92207 9.09718,-4.58637 13.18467,-5.92067 7.39784,-2.41489 7.67343,-2.42817 60.30772,-2.90505 49.22426,-0.44598 52.96581,-0.602 54.17757,-2.25918 1.03606,-1.41689 1.30165,-14.55684 1.30165,-64.39785 0,-52.4979 -0.22937,-62.93145 -1.41923,-64.55887 -1.3806,-1.8883 -3.25179,-1.94103 -68.75,-1.93751 -64.52484,0.003 -67.93788,0.0962 -81.89887,2.22555 -8.01246,1.22206 -18.58746,3.16331 -23.5,4.31388 -4.91255,1.15057 -11.6319,2.93386 -14.9319,3.96286 -3.3,1.02901 -8.7,2.83906 -12,4.02234 -3.3,1.18328 -10.52587,4.33644 -16.05748,7.00703 -5.53162,2.67059 -14.08162,7.50557 -19,10.7444 -4.91839,3.23883 -12.31752,8.58222 -16.44252,11.87419 -4.125,3.29198 -10.90541,9.77908 -15.06757,14.41577 -4.16216,4.6367 -9.60067,11.13036 -12.08558,14.43036 -2.4849,3.3 -6.33746,9.15 -8.56125,13 -2.22379,3.85 -5.66759,10.48627 -7.65288,14.74727 -1.9853,4.26101 -4.55466,10.55256 -5.7097,13.98124 -1.15504,3.42868 -3.13829,10.2924 -4.40722,15.25272 -1.26893,4.96032 -3.02909,15.13842 -3.91147,22.61798 -1.01264,8.58371 -1.60433,21.72916 -1.60433,35.64301 0,19.17857 -0.2056,22.1227 -1.58179,22.65079 -0.86998,0.33385 -20.35498,0.60699 -43.3,0.60699 -31.11416,0 -42.02323,0.30502 -42.91821,1.2 -0.90803,0.90803 -1.2,16.58413 -1.2,64.42857 0,56.14719 0.17599,63.40457 1.57143,64.8 1.37836,1.37836 6.69827,1.57143 43.3,1.57143 31.12222,0 42.03358,0.30501 42.92857,1.2 0.92398,0.92398 1.2,40.56556 1.2,172.34501 0,162.44009 0.09,171.22646 1.7694,172.7463 1.11228,1.0066 4.17617,1.74597 8.25,1.99087 3.56433,0.21427 38.47429,0.35093 77.5777,0.3037 58.69682,-0.0709 71.38538,-0.32525 72.75,-1.45832 z"
     id="path1" />
</svg>
