<svg width="72" height="72" viewBox="0 0 72 72" fill="none" xmlns="http://www.w3.org/2000/svg">
<g id="Logos/git-original-wordmark">
<path id="Vector" d="M42.9734 31.3177C41.4338 31.3177 40.2874 32.0737 40.2874 33.8934C40.2874 35.2642 41.0429 36.216 42.8907 36.216C44.4567 36.216 45.5209 35.2929 45.5209 33.8366C45.5209 32.1862 44.5686 31.3177 42.9734 31.3177V31.3177ZM39.8959 44.1652C39.5314 44.6124 39.1681 45.0877 39.1681 45.6486C39.1681 46.7674 40.5946 47.1037 42.5549 47.1037C44.1777 47.1037 46.3889 46.9901 46.3889 45.4809C46.3889 44.5837 45.3246 44.5286 43.9808 44.4442L39.8959 44.1652ZM48.1788 31.4021C48.6822 32.0462 49.2149 32.9417 49.2149 34.2292C49.2149 37.3354 46.7798 39.1545 43.2541 39.1545C42.3574 39.1545 41.5458 39.0431 41.0423 38.9031L40.1187 40.3864L42.8609 40.5534C47.7029 40.8622 50.557 41.0023 50.557 44.7232C50.557 47.9424 47.731 49.7604 42.8609 49.7604C37.795 49.7604 35.8645 48.4729 35.8645 46.2628C35.8645 45.0028 36.4248 44.3329 37.4041 43.4076C36.4799 43.0172 36.1728 42.318 36.1728 41.562C36.1728 40.9461 36.4804 40.3864 36.9844 39.8542C37.4884 39.3232 38.0481 38.7906 38.7192 38.1752C37.3478 37.5036 36.3128 36.0484 36.3128 33.9767C36.3128 30.7586 38.4396 28.5486 42.7214 28.5486C43.9251 28.5486 44.6536 28.6594 45.2965 28.8287H50.7544V31.2069L48.1788 31.4021V31.4021ZM55.678 26.3171C54.0822 26.3171 53.1586 25.3929 53.1586 23.7971C53.1586 22.2036 54.0822 21.3351 55.678 21.3351C57.3014 21.3351 58.2244 22.203 58.2244 23.7971C58.225 25.3929 57.3014 26.3171 55.678 26.3171V26.3171ZM52.0668 43.1359V40.9258L53.4949 40.7301C53.8864 40.6738 53.9421 40.59 53.9421 40.1692V31.9416C53.9421 31.6344 53.8589 31.4376 53.5782 31.3543L52.0668 30.8222L52.3744 28.5564H58.1688V40.1698C58.1688 40.6187 58.1958 40.6738 58.6165 40.7306L60.0441 40.9264V43.1364H52.0668V43.1359ZM71.1113 42.0502C69.907 42.6369 68.1447 43.1696 66.5483 43.1696C63.2183 43.1696 61.9594 41.8275 61.9594 38.6634V31.3312C61.9594 31.1642 61.9594 31.0517 61.735 31.0517H59.7764V28.5609C62.2401 28.2802 63.2189 27.0489 63.5266 23.9985H66.1861V27.9737C66.1861 28.1689 66.1861 28.2538 66.4099 28.2538H70.3559V31.0522H66.1861V37.7404C66.1861 39.3913 66.5781 40.0348 68.089 40.0348C68.8737 40.0348 69.6843 39.8396 70.3559 39.5876L71.1113 42.0502V42.0502Z" fill="#A9A9A9"/>
<path id="Vector_2" d="M29.6437 34.7062L16.8473 21.9105C16.4934 21.5567 16.0135 21.3579 15.5131 21.3579C15.0127 21.3579 14.5327 21.5567 14.1788 21.9105L11.5216 24.5677L14.8915 27.9382C15.2878 27.8035 15.7139 27.7825 16.1215 27.8775C16.5291 27.9726 16.902 28.1799 17.1978 28.476C17.4954 28.7738 17.7031 29.1493 17.7973 29.5597C17.8915 29.97 17.8683 30.3985 17.7305 30.7963L20.9789 34.0447C21.459 33.8775 21.9817 33.8782 22.4613 34.0469C22.941 34.2156 23.349 34.5422 23.6187 34.9733C23.8884 35.4043 24.0036 35.9141 23.9456 36.4192C23.8875 36.9243 23.6596 37.3947 23.2992 37.7533C22.9323 38.1209 22.4493 38.35 21.9325 38.4015C21.4156 38.453 20.8969 38.3237 20.4647 38.0357C20.0324 37.7477 19.7134 37.3187 19.562 36.8219C19.4105 36.3251 19.4359 35.7911 19.634 35.3109L16.6043 32.2813L16.6038 40.2542C16.9236 40.4121 17.2011 40.644 17.4135 40.9305C17.6258 41.2171 17.7669 41.5501 17.825 41.902C17.883 42.2539 17.8564 42.6146 17.7473 42.9542C17.6383 43.2937 17.4499 43.6025 17.1978 43.8547C16.9627 44.0897 16.6784 44.2696 16.3653 44.3814C16.0523 44.4932 15.7184 44.5342 15.3876 44.5013C15.0568 44.4684 14.7375 44.3625 14.4526 44.1912C14.1677 44.0199 13.9244 43.7876 13.7402 43.5109C13.556 43.2342 13.4355 42.92 13.3874 42.5911C13.3393 42.2622 13.3649 41.9268 13.4621 41.6089C13.5594 41.2911 13.726 40.9988 13.95 40.7531C14.1739 40.5075 14.4496 40.3146 14.7571 40.1884V32.1418C14.4829 32.0295 14.2336 31.864 14.0236 31.6548C13.8137 31.4456 13.6473 31.197 13.534 30.9232C13.4206 30.6493 13.3627 30.3558 13.3634 30.0594C13.3641 29.7631 13.4235 29.4698 13.5382 29.1966L10.216 25.8733L1.44159 34.6472C1.26622 34.8225 1.12711 35.0306 1.03219 35.2597C0.93728 35.4888 0.888428 35.7343 0.888428 35.9823C0.888428 36.2302 0.93728 36.4758 1.03219 36.7049C1.12711 36.9339 1.26622 37.1421 1.44159 37.3174L14.2379 50.1131C14.592 50.467 15.0721 50.6658 15.5727 50.6658C16.0733 50.6658 16.5534 50.467 16.9075 50.1131L29.6437 37.3759C29.819 37.2006 29.9581 36.9925 30.053 36.7635C30.1479 36.5345 30.1968 36.289 30.1968 36.0411C30.1968 35.7931 30.1479 35.5477 30.053 35.3186C29.9581 35.0896 29.819 34.8815 29.6437 34.7062V34.7062Z" fill="#7D7D7D"/>
</g>
</svg>
