<svg width="70" height="28" viewBox="0 0 70 28" fill="none" xmlns="http://www.w3.org/2000/svg">
<g id="Group">
<path id="Vector" fill-rule="evenodd" clip-rule="evenodd" d="M5.2753 8.8413C5.13861 8.8413 5.10486 8.77267 5.17293 8.67086L5.88899 7.75005C5.95649 7.64767 6.12749 7.57961 6.26361 7.57961H18.4344C18.5711 7.57961 18.6049 7.68199 18.5368 7.78436L17.9574 8.67086C17.8894 8.77267 17.7189 8.87505 17.6166 8.87505L5.2753 8.8413ZM0.1273 11.9772C-0.00882479 11.9772 -0.0431372 11.9097 0.0249253 11.8068L0.740988 10.8865C0.80905 10.7842 0.979488 10.7161 1.11618 10.7161H16.6614C16.7976 10.7161 16.8662 10.8185 16.8319 10.9209L16.559 11.7387C16.5253 11.8754 16.3886 11.9435 16.2525 11.9435L0.1273 11.9772ZM8.37693 15.1137C8.2408 15.1137 8.20705 15.0114 8.27511 14.909L8.75211 14.0568C8.82074 13.9544 8.95686 13.8526 9.09355 13.8526H15.911C16.0477 13.8526 16.1158 13.9544 16.1158 14.0911L16.0483 14.909C16.0483 15.0457 15.9116 15.148 15.8092 15.148L8.37693 15.1137ZM43.7638 8.22761C41.6156 8.77324 40.1497 9.18217 38.0364 9.72724C37.5246 9.86392 37.4908 9.89767 37.0476 9.38636C36.5362 8.80699 36.161 8.4318 35.4455 8.09092C33.2974 7.03455 31.2178 7.34111 29.2749 8.6028C26.9569 10.1024 25.7638 12.3181 25.7975 15.0794C25.8313 17.807 27.7067 20.057 30.3999 20.4322C32.718 20.7387 34.6614 19.9203 36.1954 18.1822C36.5019 17.807 36.7747 17.398 37.1156 16.9205H30.536C29.8205 16.9205 29.6501 16.4772 29.8886 15.8979C30.3319 14.8409 31.1497 13.0685 31.6267 12.182C31.7297 11.9772 31.9682 11.6364 32.4795 11.6364H44.8882C44.8207 12.5572 44.8207 13.4774 44.6841 14.3982C44.3089 16.8524 43.3886 19.1024 41.8884 21.0796C39.4337 24.3185 36.2297 26.3294 32.1724 26.875C28.8317 27.3183 25.7295 26.6703 23.0025 24.625C20.4797 22.7159 19.0481 20.1931 18.6729 17.0572C18.2297 13.3413 19.3204 10 21.5704 7.0683C23.9908 3.89805 27.1954 1.88655 31.116 1.17049C34.3205 0.591113 37.3884 0.966299 40.1497 2.84111C41.9565 4.03417 43.2519 5.67049 44.1041 7.64767C44.3089 7.9548 44.1727 8.12524 43.7632 8.22705L43.7638 8.22761Z" fill="#7D7D7D"/>
<path id="Vector_2" d="M55.0475 27.0798C51.9454 27.0112 49.1154 26.1252 46.7293 24.0794C44.7178 22.3413 43.4567 20.1251 43.0477 17.4999C42.434 13.6479 43.4904 10.2386 45.809 7.205C48.2975 3.93181 51.2973 2.22744 55.3547 1.51138C58.8315 0.89825 62.1047 1.23912 65.0702 3.25006C67.7634 5.09113 69.4335 7.57963 69.8767 10.8523C70.4561 15.4546 69.1269 19.2048 65.9561 22.4094C63.7061 24.6931 60.9448 26.1253 57.7745 26.7727C56.8543 26.9431 55.9335 26.9774 55.0475 27.0798ZM63.161 13.307C63.1273 12.8638 63.1273 12.5229 63.0587 12.182C62.4455 8.807 59.3428 6.89787 56.1045 7.64825C52.9337 8.36375 50.8884 10.3752 50.1386 13.5798C49.5249 16.2387 50.8204 18.932 53.2745 20.0227C55.1499 20.8411 57.0247 20.7388 58.8315 19.8185C61.5247 18.4207 62.9906 16.2388 63.161 13.307Z" fill="#7D7D7D"/>
</g>
</svg>
