<svg width="72" height="72" viewBox="0 0 72 72" fill="none" xmlns="http://www.w3.org/2000/svg">
<g id="Logos/jest-plain">
<path id="Vector" d="M69.8226 35.4488C69.8226 31.122 66.5443 27.4809 62.1433 26.442L72 0.0635681H23.1525L33.0317 26.5253C28.7691 27.648 25.6269 31.2255 25.6269 35.4707C25.6269 38.5903 27.3471 41.3567 29.9599 43.0622C28.9294 44.3936 27.7363 45.6216 26.3846 46.7859C23.8404 48.9504 21.0189 50.6138 17.9713 51.7168C15.2207 50.0316 14.0293 47.0565 15.1059 44.3931C19.3005 43.2287 22.3509 39.6714 22.3509 35.4904C22.3509 30.3531 17.7429 26.1911 12.1022 26.1911C6.44007 26.1911 1.83489 30.3728 1.83489 35.5118C1.83489 38.0503 2.97957 40.3791 4.81445 42.0424C4.65357 42.3349 4.49382 42.6246 4.33295 42.9368C2.79732 45.8089 1.0547 49.0539 0.388698 52.695C-0.94049 59.9743 1.23695 65.8215 6.4862 69.1284C9.44382 70.9808 12.7001 71.9168 16.2073 71.9168C22.2339 71.9168 28.3556 69.1701 34.2686 66.5066C38.4874 64.6149 42.8423 62.6372 47.1291 61.6815C48.7114 61.3277 50.3612 61.119 52.1038 60.8906C55.6324 60.4333 59.2779 59.9546 62.5562 58.2278C66.384 56.2106 68.9968 52.8396 69.7545 48.9707C70.3254 45.9951 69.7545 43.0003 68.2864 40.3791C69.2892 38.9308 69.8251 37.2104 69.822 35.4488H69.8226ZM65.3535 35.4488C65.3535 38.34 62.7626 40.6913 59.5766 40.6913C56.3906 40.6913 53.7998 38.34 53.7998 35.4488C53.7998 34.5122 54.0748 33.6184 54.5558 32.8489C54.7386 32.5564 54.9692 32.2667 55.197 32.0164C55.4385 31.7589 55.7077 31.529 55.9997 31.3307L56.0239 31.3088C56.2061 31.1839 56.4126 31.0584 56.619 30.9353C56.619 30.9353 56.6415 30.9353 56.6415 30.9133C56.7332 30.8717 56.8255 30.8098 56.9183 30.7682C56.9402 30.7682 56.9621 30.7463 56.9858 30.7463C57.0786 30.7069 57.1928 30.6653 57.3064 30.6231C57.4149 30.5852 57.522 30.5435 57.6276 30.4982C57.6501 30.4982 57.6737 30.4757 57.6956 30.4757C57.7879 30.4566 57.8801 30.4144 57.9707 30.3947C57.9949 30.3947 58.041 30.3728 58.0629 30.3728C58.1771 30.3531 58.2694 30.3311 58.3836 30.3109H58.4078L58.7509 30.2473C58.7745 30.2473 58.8184 30.2473 58.8426 30.2276C58.9348 30.2276 59.0254 30.2057 59.1176 30.2057H59.2318C59.346 30.2057 59.4624 30.186 59.5986 30.186H59.8973C59.9873 30.186 60.0581 30.186 60.1481 30.2057H60.1943C60.3788 30.2282 60.561 30.2473 60.7455 30.2895C63.3583 30.7879 65.3535 32.9108 65.3535 35.4488ZM29.5464 4.22326H65.6038L57.3289 26.3784C56.9858 26.442 56.6409 26.5449 56.2984 26.6484L47.5886 10.5272L38.8541 26.5444C38.5093 26.4414 38.1426 26.3779 37.7775 26.316L29.5464 4.22326ZM45.936 33.6375C45.5012 31.6817 44.4004 29.9351 42.8423 28.6453L47.5886 19.9508L52.3783 28.8321C50.9569 30.1219 49.9258 31.7655 49.513 33.6375H45.936ZM34.4531 30.3525C34.5673 30.33 34.6596 30.3109 34.7738 30.2889H34.8418C34.9341 30.2693 35.0269 30.2693 35.1169 30.2468H35.2091C35.3014 30.2468 35.3694 30.2271 35.4617 30.2271H36.3561C36.4461 30.2271 36.5164 30.2468 36.5844 30.2468C36.6306 30.2468 36.6525 30.2468 36.6986 30.2693C36.7909 30.2889 36.8589 30.2889 36.9518 30.3109C36.9731 30.3109 36.9973 30.3109 37.0434 30.3306C37.1582 30.3525 37.2724 30.3722 37.3641 30.3941H37.3866C37.4788 30.4138 37.5711 30.4335 37.6611 30.4757C37.6853 30.4757 37.7072 30.4976 37.7533 30.4976C37.8214 30.5173 37.9136 30.5393 37.9817 30.5809C38.0059 30.5809 38.0278 30.6006 38.052 30.6006C38.142 30.6428 38.2348 30.6647 38.3271 30.7063H38.349C38.4632 30.7457 38.5554 30.7873 38.6477 30.8514H38.6702C38.7619 30.8931 38.8541 30.9544 38.9464 30.996C38.9689 30.996 38.9689 31.0185 38.9903 31.0185C39.0825 31.0579 39.1511 31.1214 39.2434 31.1631L39.2676 31.1828C39.5421 31.3701 39.7946 31.5788 40.0449 31.7874L40.0691 31.8071C40.2981 32.0355 40.5264 32.2858 40.7109 32.5564C41.3066 33.3889 41.6514 34.3671 41.6514 35.4279C41.6514 38.3198 39.0606 40.6688 35.8746 40.6688C32.6886 40.6688 30.0977 38.3198 30.0977 35.4279C30.0741 32.9934 31.9309 30.9347 34.4531 30.3525ZM11.8958 30.2051C15.0823 30.2051 17.6726 32.5564 17.6726 35.4476C17.6726 38.3394 15.0823 40.6901 11.8958 40.6901C8.70976 40.6901 6.11889 38.3394 6.11889 35.4476C6.11889 32.5564 8.70976 30.2051 11.8958 30.2051ZM65.2151 48.2428C64.7117 50.9034 62.8988 53.235 60.2404 54.6278C57.7418 55.9395 54.6699 56.3546 51.4378 56.7703C49.6738 56.9987 47.817 57.249 46.0283 57.6444C41.2605 58.7059 36.6767 60.7866 32.2296 62.7818C26.5449 65.3417 21.1793 67.7543 16.2073 67.7543C13.6164 67.7543 11.3006 67.0888 9.10126 65.6955C4.05845 62.5337 4.30876 56.6055 4.9067 53.3599C5.4557 50.3213 6.99189 47.4716 8.45945 44.7469C8.54945 44.5798 8.61976 44.4347 8.70976 44.2676C9.21545 44.4347 9.74251 44.5601 10.2921 44.6434C9.42189 49.0534 11.8958 53.6085 16.7102 55.8563L17.5821 56.2714L18.5209 55.9592C22.5332 54.6694 26.2463 52.569 29.5245 49.7604C31.3813 48.1787 32.9636 46.4738 34.2928 44.6214C34.8199 44.7053 35.3475 44.7272 35.8746 44.7272C40.6429 44.7272 44.6529 41.7516 45.7999 37.7573H49.6496C50.7966 41.7718 54.8083 44.7266 59.5766 44.7266C61.4796 44.7266 63.2441 44.2485 64.7556 43.4374C65.3535 44.9972 65.5358 46.6189 65.2151 48.2428Z" fill="#7D7D7D"/>
</g>
</svg>
