<svg width="72" height="72" viewBox="0 0 72 72" fill="none" xmlns="http://www.w3.org/2000/svg">
<g id="Logos/linux-original">
<path id="Vector" d="M60.8035 45.7554C59.9407 49.3127 55.5599 56.7394 53.2329 60.008C50.9052 63.2902 51.1932 66.2456 46.8907 65.0947C42.6016 63.9444 41.399 64.1537 36.9659 64.4152C32.5599 64.6762 33.5139 64.2842 30.7548 65.5267C28.0087 66.7687 18.7904 50.463 18.0451 47.4294C17.3133 44.3959 16.9595 44.7615 18.8686 41.4799C20.7783 38.1982 21.0528 34.9549 23.5756 30.9797C26.0995 26.9916 29.0155 24.9649 28.8063 21.9184C27.9828 10.6076 27.3292 4.95899 32.3506 2.34336C37.1358 -0.141201 41.1374 1.33649 42.7197 2.18642C43.3992 2.55261 44.7858 3.25855 45.8185 4.50111C46.8513 5.71724 47.78 7.56111 48.3031 9.88817C49.3752 14.5564 47.8582 13.0134 49.0743 18.3617C50.2775 23.6964 52.7221 26.3115 55.7045 30.5353C58.6852 34.7585 61.7975 41.7279 60.8035 45.7554Z" fill="#6A6A6A"/>
<path id="Vector_2" d="M32.4249 18.0495C33.209 17.7356 33.0774 17.694 33.5999 16.5561C34.0184 15.6803 34.3863 15.3034 34.3734 13.9697C34.3734 12.6619 33.9672 12.2175 33.353 11.3676C32.7652 10.557 31.8235 10.5176 31.2352 10.6223C30.8954 10.6746 30.4505 11.106 30.1495 11.7473C29.9538 12.1787 29.7963 12.7283 29.7834 13.3031C29.744 14.8461 29.875 15.435 30.2283 16.4807C30.6462 17.7098 31.666 18.351 32.4249 18.0495V18.0495Z" fill="#A9A9A9"/>
<path id="Vector_3" d="M31.6925 12.7277C32.0851 12.7277 32.5818 12.9893 32.8169 13.3419C33.0655 13.6952 33.2484 14.1919 33.2484 14.7544C33.2484 15.5914 33.1567 16.5195 32.66 16.8069C32.503 16.8986 32.1627 16.9768 31.967 16.9768C31.5226 16.9768 31.4832 16.6888 31.0647 16.2574C30.9213 16.1004 30.4893 15.3422 30.4893 14.7144C30.4893 14.3224 30.3976 13.7599 30.7374 13.2626C30.9736 12.8976 31.274 12.7277 31.6925 12.7277ZM31.5879 13.4291C31.7409 13.1923 32.3545 13.3037 32.5773 13.7919C32.8006 14.2802 32.7584 15.3399 32.6049 15.3956C32.201 15.5211 32.3264 14.9355 31.9777 14.4056C31.6295 13.9039 31.4343 13.6665 31.5879 13.4291Z" fill="#6A6A6A"/>
<path id="Vector_4" d="M40.5314 18.2199C42.4928 18.0107 43.1858 17.2524 43.5391 15.9317C43.853 14.7549 43.8665 13.4471 42.9901 11.9171C42.166 10.4529 41.6958 10.2172 40.5055 10.1256C38.6751 9.96918 37.8117 11.25 37.4061 12.1652C36.9747 13.1591 37.0664 13.0151 37.0923 14.2706C37.1187 15.5914 37.8629 15.9592 38.3213 16.7833C38.7786 17.5944 40.3092 18.2329 40.5314 18.2199V18.2199Z" fill="#A9A9A9"/>
<path id="Vector_5" d="M40.3752 12.6754C41.3557 12.6754 41.9311 13.5518 42.1269 14.6762C42.2056 15.1864 42.0875 15.7748 41.7742 16.1803C41.4209 16.6506 40.7932 16.9386 40.2841 16.9386C39.8004 16.9386 39.2508 17.0173 38.9634 16.6247C38.6759 16.2197 38.6101 15.3169 38.6101 14.6762C38.6101 13.9573 38.8199 13.4471 39.1855 13.0416C39.4595 12.7406 39.9562 12.6754 40.3752 12.6754ZM40.4377 13.0793C40.6154 12.9606 40.9119 13.0793 41.2533 13.4646C41.6234 13.8797 41.7865 14.2054 41.3422 14.4428C41.0013 14.6205 40.8978 14.0867 40.6897 13.8645C40.364 13.509 40.0822 13.3161 40.4377 13.0793Z" fill="#6A6A6A"/>
<path id="Vector_6" d="M34.5134 24.4581C32.8281 24.5222 30.2012 19.8247 30.1107 21.7012C30.0533 23.2914 30.1287 23.2774 30.1163 24.8332C30.0887 25.8992 29.5797 26.0387 28.5312 27.6446C27.9844 28.5097 27.5732 29.4266 27.2616 30.3469C27.0856 30.9375 26.9781 31.5129 26.8201 32.0766C26.7441 32.3747 26.5478 32.6554 26.4229 32.9923C25.8317 34.9504 23.9626 37.3837 23.5244 39.3266C23.0766 41.2897 22.549 42.5402 22.6232 45.1637C22.6896 47.7062 22.6947 47.0121 23.4901 47.6724C24.268 48.3294 25.0954 48.9561 26.3341 50.0518C27.6385 51.1864 30.3728 53.1787 30.7367 53.7907C31.1271 54.4162 31.1237 55.8461 30.8903 56.3012C30.6563 56.7439 28.6054 57.0049 28.6184 57.0049C28.6054 57.0049 30.4004 59.4686 30.7536 59.8213C31.0934 60.1611 32.5514 61.7844 38.5043 60.6757C41.8681 60.0486 44.5197 58.1782 46.3276 56.3434C48.6496 54.0259 47.4368 53.2974 47.749 52.1139C48.2052 50.4034 49.7965 49.7593 50.1357 47.8271C50.1751 47.5532 50.2724 47.3451 50.5199 46.9412C50.9001 46.3596 50.8034 45.2256 50.8073 44.1832C50.8191 41.454 50.4974 38.6921 49.8696 36.6587C49.2942 34.7552 48.3801 33.4232 47.5971 31.6997C46.0306 28.2662 46.1042 26.7204 44.7025 24.5306C43.1438 22.0584 43.8672 20.4294 41.7949 20.5369C39.1866 20.6882 37.0069 24.3546 34.5134 24.4581V24.4581Z" fill="#A9A9A9"/>
<path id="Vector_7" d="M35.4188 15.2904C36.3734 15.1729 37.6807 15.408 38.2825 15.8529C38.8445 16.272 39.2365 16.4942 39.7467 16.6635C41.4595 17.226 43.709 17.4876 43.6043 19.0305C43.4868 20.8738 42.9507 21.6979 41.4207 22.1816C40.1917 22.5607 37.9951 24.6921 36.2952 24.6921C35.537 24.6921 34.4778 24.7314 33.863 24.5092C33.2746 24.3 32.4505 23.3061 31.483 22.5084C30.515 21.7237 29.6133 20.8873 29.5874 19.7887C29.548 18.6255 30.3063 18.2458 31.379 17.3171C31.9415 16.8204 32.9613 15.9964 33.6672 15.6302C34.3203 15.3034 34.7393 15.3686 35.4188 15.2904Z" fill="#7D7D7D"/>
<path id="Vector_8" d="M60.6038 48.6478C61.4144 49.8246 60.5774 51.3546 61.1663 52.2962C62.1338 53.8391 64.0823 55.3944 64.8276 55.8264C65.3637 56.1533 66.1219 56.4671 66.0955 57.4217C66.0561 58.5073 65.5201 58.7942 65.2197 59.0957C64.6178 59.697 61.5848 61.2006 59.5711 62.5736C57.0336 64.3123 56.1584 65.0846 55.3343 65.9076C54.0529 67.1895 52.8368 67.6204 50.8883 67.6204C48.9398 67.6204 48.064 67.2154 47.4627 66.6788C46.8608 66.1556 46.1948 64.8219 46.2595 62.8346C46.3118 60.8597 46.939 59.0552 47.2405 55.9823C47.371 54.6615 47.3575 53.0274 47.3575 51.5762C47.3575 49.7453 47.3839 48.1894 47.7766 47.9543C48.4825 47.5099 48.6394 47.484 49.4759 47.484C50.3123 47.484 50.692 47.5358 50.9665 47.8108C51.2275 48.0718 51.1234 48.6737 51.0317 49.5236C50.953 50.3736 51.3591 50.6481 51.7641 51.0013C52.1697 51.3411 52.5359 51.7731 53.8172 51.8777C55.0986 51.9688 55.5689 51.7601 56.1707 51.3804C56.7726 51.0013 57.622 50.3218 57.9364 49.9292C58.2368 49.5501 58.9821 48.2423 59.1261 48.2423C59.2566 48.2423 60.1201 47.9419 60.6038 48.6478Z" fill="#7D7D7D"/>
<path id="Vector_9" d="M14.9945 50.6616C13.8172 51.5115 10.8359 51.4327 10.0777 52.4267C9.33237 53.4206 10.1041 54.8589 10.0906 57.5263C10.0906 58.6642 9.89487 59.5277 9.76381 60.2201C9.581 61.0965 9.46287 61.7113 9.82906 62.3385C10.4967 63.4506 11.5677 63.7251 17.7012 65.0064C20.9829 65.6859 24.0822 67.4516 26.1612 67.6215C28.2402 67.7784 28.6852 67.0854 29.9536 65.961C31.2086 64.8366 31.6141 65.1892 31.5747 62.7182C31.5359 60.2601 29.9536 59.5277 28.1621 56.6899C26.3705 53.8526 26.0836 53.3295 24.8934 51.4462C23.7031 49.5894 21.3496 46.2161 20.003 46.1767C18.9303 46.1509 18.329 46.7263 17.6619 47.4064C16.9947 48.0859 16.1707 49.8116 14.9945 50.6616Z" fill="#7D7D7D"/>
</g>
</svg>
