<svg width="60" height="60" viewBox="0 0 60 60" fill="none" xmlns="http://www.w3.org/2000/svg">
<g id="Group">
<g id="Group_2">
<path id="Vector" d="M24.9912 26.25C24.9912 20.0475 19.9437 15 13.7412 15H5.92871C2.36121 17.485 -0.00878906 21.58 -0.00878906 26.25V46.25C-0.00878906 46.94 0.551211 47.5 1.24121 47.5H24.9912V26.25Z" fill="black"/>
<path id="Vector_2" d="M49.9912 17.5V24.2275L52.4912 22.9775V15.875L49.9712 17.275C49.9837 17.3475 49.9912 17.4225 49.9912 17.5Z" fill="black"/>
<path id="Vector_3" d="M46.2412 0H44.9912C44.8362 0 44.6862 0.0275 44.5412 0.0825L12.2587 12.5H13.7412C21.3237 12.5 27.4912 18.6675 27.4912 26.25V47.05L59.2637 32.385C59.7087 32.18 59.9912 31.7375 59.9912 31.25V13.75C59.9912 6.1675 53.8237 0 46.2412 0ZM54.9912 23.75C54.9912 24.2225 54.7237 24.655 54.3012 24.8675L49.3012 27.3675C48.9112 27.56 48.4512 27.5425 48.0862 27.3125C47.7162 27.085 47.4912 26.6825 47.4912 26.25V18.6525L31.8487 27.3425C31.6562 27.45 31.4487 27.5 31.2412 27.5C30.8012 27.5 30.3762 27.2675 30.1462 26.8575C29.8112 26.255 30.0287 25.495 30.6312 25.1575L53.1312 12.6575C53.5162 12.4425 53.9887 12.4475 54.3712 12.6725C54.7537 12.8975 54.9912 13.3075 54.9912 13.75V23.75Z" fill="black"/>
</g>
<g id="Group_3">
<path id="Vector_4" d="M23.7412 60C23.0512 60 22.4912 59.44 22.4912 58.75V46.25C22.4912 45.56 23.0512 45 23.7412 45C24.4312 45 24.9912 45.56 24.9912 46.25V58.75C24.9912 59.44 24.4312 60 23.7412 60Z" fill="black"/>
</g>
<g id="Group_4">
<path id="Vector_5" d="M31.2412 60C30.5512 60 29.9912 59.44 29.9912 58.75V45C29.9912 44.31 30.5512 43.75 31.2412 43.75C31.9312 43.75 32.4912 44.31 32.4912 45V58.75C32.4912 59.44 31.9312 60 31.2412 60Z" fill="black"/>
</g>
<g id="Group_5">
<path id="Vector_6" d="M36.2412 60C35.5512 60 34.9912 59.44 34.9912 58.75V42.5C34.9912 41.81 35.5512 41.25 36.2412 41.25C36.9312 41.25 37.4912 41.81 37.4912 42.5V58.75C37.4912 59.44 36.9312 60 36.2412 60Z" fill="black"/>
</g>
</g>
</svg>
