<svg width="72" height="72" viewBox="0 0 72 72" fill="none" xmlns="http://www.w3.org/2000/svg">
<g id="Logos/mongodb-plain">
<path id="Vector" fill-rule="evenodd" clip-rule="evenodd" d="M50.9012 32.2211C50.693 29.5268 50.0597 26.9286 49.1788 24.3833C47.354 18.6998 44.4257 13.6699 40.3009 9.34201C39.258 8.24738 38.0981 7.24444 37.3708 5.88207C36.9107 5.02032 36.4725 4.14676 36.0242 3.27826L35.7401 2.56219C35.6923 2.72644 35.6619 2.78495 35.6602 2.84401C35.6237 4.25982 34.8215 5.22001 33.8225 6.11607C32.6992 7.12463 31.6535 8.21926 30.5741 9.27619L27.2548 13.6429C26.3593 15.2882 25.4649 16.9335 24.5705 18.5788L22.7762 23.4259L22.7222 23.5013C21.7344 26.7458 21.2473 30.0814 21.0077 33.4508C20.9177 34.7169 21.02 36.0017 21.0915 37.2746C21.1933 39.0943 21.5094 40.8831 21.9836 42.6437C23.706 49.0404 27.2014 54.3465 31.9798 58.8544C32.868 59.6919 33.7792 60.4536 34.7062 61.2506C34.8649 60.7078 34.9914 60.165 35.1354 59.6222C35.2794 59.0816 35.4251 58.5439 35.5224 58.0016C35.4245 58.5439 35.3149 59.0816 35.2063 59.6222L34.7417 61.2506L35.1568 62.6574L35.5415 64.8422L35.7249 67.122C35.7232 67.5849 35.7047 68.049 35.7328 68.5114C35.7395 68.6295 35.8948 68.7386 35.9814 68.8523L36.7554 69.1239L37.562 69.4378L37.4237 67.4111L37.4175 65.4154L37.6959 62.3751L37.8979 61.713L38.4755 60.6893C39.1888 60.1155 39.9544 59.5946 40.604 58.9562C41.7797 57.8008 42.9525 56.6308 44.0044 55.3658C45.3735 53.726 46.5425 51.9291 47.4868 50.013C48.1179 48.7283 48.7119 47.4176 49.2035 46.0749C49.6367 44.8914 49.905 43.6478 50.2464 42.4305C50.2768 42.3428 50.3173 42.2567 50.3364 42.1673C51.0418 38.8817 51.1605 35.5629 50.9012 32.2211ZM37.6267 59.9946L37.1739 59.0029L37.6267 59.9946L38.2922 60.5627L37.6267 59.9946Z" fill="#7D7D7D"/>
</g>
</svg>
