<svg width="72" height="72" viewBox="0 0 72 72" fill="none" xmlns="http://www.w3.org/2000/svg">
<g id="Logos/nodejs-original">
<path id="Vector" d="M63.4337 17.0629L38.6291 2.66007C37.0648 1.76907 35.028 1.76907 33.4513 2.66007L8.38181 17.0629C6.76744 17.9916 5.625 19.737 5.625 21.6039V50.3713C5.625 52.2383 6.79725 53.9843 8.41163 54.918L15.0351 58.68C18.2008 60.2393 19.3196 60.2393 20.7602 60.2393C25.4475 60.2393 28.125 57.4048 28.125 52.461V24.0604C28.125 23.6593 27.9163 23.0625 27.5226 23.0625H24.3596C23.9591 23.0625 23.0625 23.6593 23.0625 24.0598V52.4604C23.0625 54.6519 21.0802 56.8328 17.3756 54.9804L10.5317 51.0356C10.2932 50.9063 10.125 50.6458 10.125 50.3713V21.6039C10.125 21.3328 10.4372 21.0606 10.6774 20.9216L35.6659 6.54357C35.8993 6.41138 36.2424 6.41138 36.4753 6.54357L61.1589 20.9183C61.3952 21.0606 61.3119 21.3244 61.3119 21.6039V50.3713C61.3119 50.6458 61.4149 50.913 61.1814 51.0452L36.3831 65.4317C36.1704 65.5594 35.9066 65.5594 35.6737 65.4317L29.3136 61.6354C29.1217 61.524 28.8939 61.4841 28.71 61.587C26.9404 62.5899 26.6141 62.7233 24.9542 63.2987C24.5458 63.441 23.9434 63.6879 25.1848 64.3838L33.5087 69.3079C34.3034 69.7669 35.2049 70.0086 36.1226 70.0088C37.0463 70.0088 37.9508 69.7691 38.7478 69.3079L63.4331 54.918C65.0475 53.9775 65.8125 52.2383 65.8125 50.3713V21.6039C65.8125 19.737 65.0475 17.9961 63.4337 17.0629ZM43.8244 45.8128C37.2285 45.8128 35.7756 43.9931 35.2913 40.7132C35.235 40.3599 34.9352 39.9375 34.5757 39.9375H31.3521C30.9532 39.9375 30.6326 40.4213 30.6326 40.8184C30.6326 45.018 32.9158 50.1064 43.8249 50.1064C51.7219 50.1064 56.2494 47.0379 56.2494 41.6076C56.2494 36.2233 52.6118 34.8103 44.9533 33.7967C37.2122 32.7735 36.4258 32.2566 36.4258 30.4431C36.4258 28.9479 37.0918 26.9539 42.8237 26.9539C47.9452 26.9539 49.833 28.053 50.6098 31.5051C50.6762 31.8296 50.9726 32.0625 51.3073 32.0625H54.5439C54.7431 32.0625 54.9332 31.9821 55.0727 31.8398C55.2077 31.6868 55.2791 31.4949 55.2611 31.2891C54.7599 25.3446 50.8106 22.5743 42.8231 22.5743C35.7182 22.5743 31.4797 25.5746 31.4797 30.6039C31.4797 36.0591 35.6968 37.5666 42.5171 38.241C50.6762 39.0409 51.3107 40.2334 51.3107 41.8382C51.3107 44.6254 49.0731 45.8128 43.8244 45.8128Z" fill="#7D7D7D"/>
</g>
</svg>
