<svg width="72" height="72" viewBox="0 0 72 72" fill="none" xmlns="http://www.w3.org/2000/svg">
<g id="Logos/nuxtjs-original">
<path id="Vector" d="M22.0876 61.2956L21.9278 60.9767C21.6089 60.3383 21.6089 59.6998 21.7686 58.9016H4.53308L30.0678 13.5788L40.7603 32.8894L44.2709 30.3356L33.5783 11.025C33.4191 10.7061 32.1423 8.79132 30.0678 8.79132C29.1098 8.79132 27.6738 9.11026 26.5566 11.1848L0.703017 56.9869C0.543267 57.4661 -0.573858 59.5406 0.383517 61.2956C1.02195 62.2536 1.97989 63.2109 4.21414 63.2109H25.9182C23.684 63.2109 22.5668 62.2536 22.0876 61.2962V61.2956Z" fill="#6A6A6A"/>
<path id="Vector_2" d="M71.2406 57.1444L50.4939 19.8006C50.175 19.4816 49.0578 17.4066 46.9828 17.4066C46.0254 17.4066 44.5893 17.8852 43.4722 19.8006L40.7593 24.2691V32.8871L46.9833 22.1946L67.5703 58.8999H59.7504C59.8812 59.6598 59.7694 60.4415 59.4309 61.1342L59.2712 61.2939C58.3138 63.0489 55.9198 63.2087 55.6008 63.2087H67.7295C68.2081 63.2087 70.4424 63.0495 71.5595 61.2939C72.0382 60.4957 72.3577 59.0597 71.2406 57.1444V57.1444Z" fill="#7D7D7D"/>
<path id="Vector_3" d="M59.9118 61.2956V61.1359L60.0715 60.8169C60.2307 60.1785 60.3905 59.54 60.2307 58.9016L59.5928 56.9869L43.3152 28.5801L40.9212 24.2713H40.7615L38.3675 28.5801L22.0898 56.9863L21.452 58.9016C21.2974 59.7131 21.4092 60.5529 21.7709 61.2956C22.4093 62.253 23.3667 63.2109 25.601 63.2109H55.9231C56.4018 63.2109 58.7958 63.0512 59.9129 61.2956H59.9118ZM40.7609 32.8888L55.603 58.9016H25.9193L40.7609 32.8888Z" fill="#A9A9A9"/>
</g>
</svg>
