<svg width="72" height="72" viewBox="0 0 72 72" fill="none" xmlns="http://www.w3.org/2000/svg">
<g id="Logos/php-plain">
<path id="Vector" d="M35.9999 18.5844C17.0211 18.5844 1.63452 26.3818 1.63452 36C1.63452 45.6182 17.0211 53.4156 35.9999 53.4156C54.9786 53.4156 70.3653 45.6182 70.3653 36C70.3653 26.3818 54.9786 18.5844 35.9999 18.5844ZM27.0578 39.393C26.2377 40.1603 25.327 40.4769 24.3241 40.8032C23.3211 41.13 22.0448 41.0625 20.4929 41.0625H16.9756L16.0008 46.6875H11.894L15.5586 27.5625H23.4561C25.8321 27.5625 27.5652 28.2459 28.6548 29.493C29.7443 30.7401 30.0717 32.5103 29.6375 34.7451C29.458 35.6659 29.156 36.522 28.7296 37.2848C28.2877 38.0718 27.7234 38.7834 27.0578 39.393ZM39.0453 41.0625L40.6658 32.9513C40.8503 32.0018 40.7828 31.2964 40.4628 30.9516C40.1421 30.6062 39.4604 30.375 38.4181 30.375H35.1612L33.0625 41.0625H28.9878L32.6525 22.5H36.7272L35.753 27.5625H39.3828C41.6671 27.5625 43.2421 28.0209 44.1089 28.8174C44.9757 29.6139 45.2356 30.7052 44.8891 32.4894L43.1842 41.0625H39.0453ZM61.691 34.7749C61.5121 35.6957 61.2095 36.5372 60.7836 37.2994C60.3573 38.0627 59.8004 38.7608 59.1125 39.393C58.2923 40.1603 57.3811 40.4769 56.3787 40.8032C55.3763 41.13 54.0989 41.0625 52.547 41.0625H49.0296L48.0554 46.6875H43.9486L47.6127 27.5625H55.5108C57.8868 27.5625 59.6198 28.2459 60.7088 29.493C61.7973 30.7401 62.1252 32.5406 61.691 34.7749ZM53.9543 30.375H51.1413L49.6073 38.25H52.106C53.7608 38.25 54.995 38.0869 55.805 37.4625C56.6161 36.8393 57.1623 35.8718 57.4463 34.4132C57.7186 33.012 57.5948 31.9191 57.0751 31.3431C56.5548 30.7671 55.5147 30.375 53.9543 30.375ZM21.9003 30.375H19.0866L17.5527 38.25H20.0508C21.7062 38.25 22.9398 38.0869 23.7503 37.4625C24.5609 36.8393 25.1076 35.8718 25.3911 34.4132C25.6634 33.012 25.5396 31.9191 25.0199 31.3431C24.5001 30.7671 23.4606 30.375 21.9003 30.375Z" fill="#7D7D7D"/>
</g>
</svg>
