<svg width="72" height="64" viewBox="0 0 72 64" fill="none" xmlns="http://www.w3.org/2000/svg">
<g id="Group">
<path id="Vector" d="M36.0001 38.4125C39.5417 38.4125 42.4126 35.5415 42.4126 32C42.4126 28.4585 39.5417 25.5875 36.0001 25.5875C32.4586 25.5875 29.5876 28.4585 29.5876 32C29.5876 35.5415 32.4586 38.4125 36.0001 38.4125Z" fill="#7D7D7D"/>
<path id="Vector_2" d="M60.3564 21.425C59.1189 20.975 57.8251 20.525 56.4751 20.1312C56.8126 18.7812 57.0939 17.4312 57.3189 16.1375C58.5001 8.71249 57.2064 3.48124 53.6064 1.45624C52.5376 0.837494 51.3564 0.556244 50.0064 0.556244C46.0689 0.556244 41.0626 3.48124 36.0001 8.37499C30.9376 3.48124 25.9313 0.556244 21.9938 0.556244C20.6438 0.556244 19.4626 0.837494 18.3939 1.45624C14.7938 3.53749 13.5001 8.76874 14.6813 16.1375C14.9063 17.4312 15.1876 18.7812 15.5251 20.1312C14.1751 20.525 12.8813 20.9187 11.6438 21.425C4.6126 24.125 0.787598 27.8375 0.787598 32C0.787598 36.1625 4.66885 39.875 11.6438 42.575C12.8813 43.025 14.1751 43.475 15.5251 43.8687C15.1876 45.2187 14.9063 46.5687 14.6813 47.8625C13.5001 55.2875 14.7938 60.5187 18.3939 62.5437C19.4626 63.1625 20.6438 63.4437 21.9938 63.4437C25.9876 63.4437 30.9939 60.5187 36.0001 55.625C41.0626 60.5187 46.0689 63.4437 50.0064 63.4437C51.3564 63.4437 52.5376 63.1625 53.6064 62.5437C57.2064 60.4625 58.5001 55.2312 57.3189 47.8625C57.0939 46.5687 56.8126 45.2187 56.4751 43.8687C57.8251 43.475 59.1189 43.0812 60.3564 42.575C67.3876 39.875 71.2126 36.1625 71.2126 32C71.2126 27.8375 67.3876 24.125 60.3564 21.425ZM52.0314 4.26874C54.3376 5.61874 55.1251 9.78124 54.1689 15.6875C54.0001 16.8687 53.7189 18.1062 53.3814 19.4C50.4564 18.725 47.3626 18.275 44.1001 17.9937C42.1876 15.2937 40.2188 12.875 38.2501 10.6812C42.4126 6.57499 46.6314 3.76249 50.0626 3.76249C50.7939 3.76249 51.4689 3.93124 52.0314 4.26874ZM45.7314 37.625C44.7189 39.425 43.5376 41.225 42.3001 43.025C40.2188 43.1937 38.1376 43.25 36.0001 43.25C33.8064 43.25 31.7251 43.1937 29.7001 43.025C28.4626 41.225 27.3376 39.425 26.3251 37.625C25.2563 35.7687 24.2438 33.8562 23.3438 32C24.2438 30.1437 25.2563 28.2312 26.3251 26.375C27.3376 24.575 28.5189 22.775 29.7564 20.975C31.8376 20.8062 33.9188 20.75 36.0564 20.75C38.2501 20.75 40.3314 20.8062 42.3564 20.975C43.5939 22.775 44.7189 24.575 45.7314 26.375C46.8001 28.2312 47.8126 30.1437 48.7126 32C47.7564 33.8562 46.8001 35.7125 45.7314 37.625ZM50.4001 35.7687C51.2439 37.7375 51.9189 39.65 52.5376 41.5625C50.6251 42.0125 48.6001 42.35 46.4626 42.6312C47.1376 41.5625 47.8689 40.4375 48.4876 39.2562C49.1626 38.075 49.7814 36.8937 50.4001 35.7687ZM36.0001 51.0125C34.6501 49.55 33.3563 47.975 32.1188 46.3437C33.4126 46.4 34.7064 46.4562 36.0001 46.4562C37.2938 46.4562 38.5876 46.4 39.8814 46.3437C38.6439 47.975 37.3501 49.55 36.0001 51.0125ZM25.5376 42.575C23.4001 42.2937 21.3751 41.9562 19.4626 41.5062C20.0813 39.65 20.7563 37.6812 21.6001 35.7125C22.2188 36.8375 22.8376 38.0187 23.5126 39.1437C24.1876 40.3812 24.8626 41.45 25.5376 42.575ZM21.6001 28.2312C20.7563 26.2625 20.0813 24.35 19.4626 22.4375C21.3751 21.9875 23.4001 21.65 25.5376 21.3687C24.8626 22.4375 24.1313 23.5625 23.5126 24.7437C22.8376 25.925 22.2188 27.1062 21.6001 28.2312ZM36.0001 12.9875C37.3501 14.45 38.6439 16.025 39.8814 17.6562C38.5876 17.6 37.2938 17.5437 36.0001 17.5437C34.7064 17.5437 33.4126 17.6 32.1188 17.6562C33.3563 16.025 34.6501 14.45 36.0001 12.9875ZM48.4876 24.8L46.4626 21.425C48.6001 21.7062 50.6251 22.0437 52.5376 22.4937C51.9189 24.35 51.2439 26.3187 50.4001 28.2875C49.7814 27.1062 49.1626 25.925 48.4876 24.8ZM17.8314 15.6875C16.8751 9.78124 17.6626 5.61874 19.9688 4.26874C20.5313 3.93124 21.2063 3.76249 21.9376 3.76249C25.3126 3.76249 29.5313 6.51874 33.7501 10.6812C31.7813 12.8187 29.8126 15.2937 27.9001 17.9937C24.6376 18.275 21.5438 18.7812 18.6188 19.4C18.2813 18.1062 18.0564 16.8687 17.8314 15.6875ZM3.9376 32C3.9376 29.3562 7.14385 26.5437 12.7688 24.4625C13.8938 24.0125 15.1313 23.6187 16.3688 23.2812C17.2689 26.0937 18.3938 29.075 19.7438 32.0562C18.3938 35.0375 17.2126 37.9625 16.3688 40.775C8.60635 38.525 3.9376 35.15 3.9376 32ZM19.9688 59.7312C17.6626 58.3812 16.8751 54.2187 17.8314 48.3125C18.0001 47.1312 18.2813 45.8937 18.6188 44.6C21.5438 45.275 24.6376 45.725 27.9001 46.0062C29.8126 48.7062 31.7813 51.125 33.7501 53.3187C29.5876 57.425 25.3688 60.2375 21.9376 60.2375C21.2063 60.2375 20.5313 60.0687 19.9688 59.7312ZM54.1689 48.3125C55.1251 54.2187 54.3376 58.3812 52.0314 59.7312C51.4689 60.0687 50.7939 60.2375 50.0626 60.2375C46.6876 60.2375 42.4689 57.4812 38.2501 53.3187C40.2188 51.1812 42.1876 48.7062 44.1001 46.0062C47.3626 45.725 50.4564 45.2187 53.3814 44.6C53.7189 45.8937 53.9439 47.1312 54.1689 48.3125ZM59.2314 39.5375C58.1064 39.9875 56.8689 40.3812 55.6314 40.7187C54.7314 37.9062 53.6064 34.925 52.2564 31.9437C53.6064 28.9625 54.7876 26.0375 55.6314 23.225C63.3939 25.475 68.0626 28.85 68.0626 32C68.0626 34.6437 64.8001 37.4562 59.2314 39.5375Z" fill="#7D7D7D"/>
</g>
</svg>
