<svg width="72" height="73" viewBox="0 0 72 73" fill="none" xmlns="http://www.w3.org/2000/svg">
<path id="Vector" fill-rule="evenodd" clip-rule="evenodd" d="M35.414 0.136423C35.2837 0.212261 34.7369 0.996838 34.1985 1.88C32.8472 4.09792 32.832 4.0993 31.0168 2.18887C29.8358 0.946509 29.5503 0.718996 29.1698 0.721753C28.9223 0.723132 28.6099 0.807243 28.4748 0.90859C28.3404 1.00994 27.9591 1.81658 27.6282 2.70112C26.8705 4.72737 26.834 4.79287 26.4141 4.87353C26.1555 4.92248 25.6578 4.64533 24.4644 3.78836C23.5833 3.15477 22.7187 2.637 22.5436 2.637C21.8169 2.637 21.6122 3.03412 21.2661 5.11414C20.8262 7.75882 20.8414 7.74985 18.4573 6.66675C17.4949 6.23034 16.5821 5.87252 16.4283 5.87252C16.2746 5.87252 15.9829 6.03799 15.7809 6.23999C15.4142 6.60746 15.4135 6.60884 15.5134 8.63095L15.6141 10.6551L15.2315 10.8599C14.8923 11.0412 14.6585 11.0192 13.1569 10.6641C11.1969 10.2015 10.7832 10.2139 10.3861 10.7482L10.0959 11.1384L10.4854 12.8075C10.6991 13.7252 10.9052 14.609 10.9439 14.7711C10.9818 14.9324 10.9163 15.1909 10.7977 15.3447C10.6019 15.5977 10.3937 15.6204 8.57979 15.5929C5.50973 15.5446 5.3353 15.808 6.60387 18.5767C7.00718 19.4558 7.33742 20.2541 7.33742 20.35C7.33742 20.856 6.9341 21.0401 5.20155 21.3228C4.23221 21.4806 3.38972 21.6103 3.32905 21.6103C3.26838 21.6103 3.08637 21.7426 2.92504 21.904C2.39762 22.4314 2.54723 22.9264 3.7434 24.6148C5.23327 26.7176 5.23051 26.7252 2.76923 27.6669C-0.0298773 28.7376 -0.0864108 29.0017 2.04463 31.0231C4.02952 32.9053 4.03158 32.8777 1.78472 34.2903C0.0825008 35.3597 0.0563025 35.3852 0.0128681 35.965C-0.0395289 36.6703 -0.0271194 36.6827 2.00533 37.9244C4.01504 39.1516 4.01504 39.1888 2.04256 41.0551C-0.0788271 43.0613 -0.0133307 43.3543 2.78784 44.4113C5.23534 45.3344 5.23878 45.3454 3.74616 47.4482C2.90022 48.6402 2.63065 49.1366 2.63065 49.5048C2.63065 50.1935 2.98916 50.3693 5.13123 50.7292C6.93548 51.0333 7.33742 51.2118 7.33742 51.7096C7.33742 51.8116 7.00649 52.6169 6.6018 53.498C5.34289 56.2399 5.48629 56.4681 8.46603 56.4681C11.241 56.4681 11.1672 56.3833 10.5695 58.8859C10.1186 60.7722 10.1117 61.1335 10.5199 61.541C10.8322 61.854 11.4209 61.8188 13.2624 61.3782C14.6689 61.0425 14.9157 61.0191 15.2418 61.1935L15.6141 61.3927L15.5134 63.4162C15.4135 65.439 15.4142 65.4404 15.7809 65.8079C15.9829 66.0099 16.2787 66.1753 16.4373 66.1753C16.5958 66.1753 17.5087 65.8196 18.4663 65.3846C20.8428 64.3056 20.8276 64.2966 21.2661 66.933C21.6136 69.0227 21.8162 69.4109 22.5581 69.4109C22.7422 69.4109 23.5881 68.9145 24.4389 68.3078C25.9329 67.2419 26.3203 67.075 26.7181 67.3281C26.8209 67.3929 27.2193 68.2685 27.6034 69.2737C28.168 70.7518 28.3748 71.1365 28.6892 71.2868C29.2877 71.5736 29.6579 71.3433 31.0643 69.8114C32.7624 67.9617 32.832 67.9706 34.2185 70.2175C35.7497 72.6981 36.1462 72.6926 37.716 70.1672C39.0687 67.9913 39.0528 67.9927 40.8812 69.9024C42.0953 71.1696 42.3538 71.3716 42.7633 71.3716C43.0246 71.3716 43.337 71.2737 43.4562 71.1537C43.5762 71.0338 43.9733 70.1479 44.3387 69.1854C44.7041 68.2223 45.0826 67.3839 45.1805 67.3219C45.5673 67.0757 45.9678 67.2488 47.4598 68.3078C48.3381 68.9317 49.1647 69.4109 49.3612 69.4109C50.0907 69.4109 50.354 68.8931 50.6574 66.8579C50.9166 65.1226 50.969 64.9564 51.3103 64.7834C51.646 64.6131 51.8473 64.6703 53.422 65.3852C54.3796 65.8196 55.2924 66.1753 55.451 66.1753C55.6096 66.1753 55.9102 66.005 56.1177 65.7968L56.4962 65.419L56.3921 63.4783C56.2928 61.6251 56.3018 61.5258 56.5975 61.2583C56.9016 60.9832 56.9326 60.9846 58.6328 61.3727C60.6914 61.8429 61.0754 61.8553 61.4622 61.4686C61.84 61.0907 61.8359 61.008 61.3188 58.8273C60.739 56.3812 60.6611 56.4681 63.4478 56.4681C65.3472 56.4681 65.5588 56.4412 65.8008 56.1744C66.2048 55.7276 66.109 55.2161 65.2961 53.4835C64.8859 52.6107 64.5529 51.8165 64.5557 51.7186C64.5695 51.2036 64.9742 51.0278 66.8446 50.7237C67.9891 50.5383 68.8454 50.3232 69.0005 50.1832C69.5203 49.7137 69.3293 49.1029 68.1428 47.4392C66.6557 45.3544 66.6619 45.3344 69.0432 44.4568C71.8947 43.4061 71.9761 43.0558 69.8423 41.0282C67.8657 39.1502 67.865 39.1605 70.0298 37.8313C72.6469 36.2249 72.651 35.8629 70.076 34.2648C67.8615 32.8908 67.8629 32.9101 69.8478 31.0252C71.9768 29.0024 71.9189 28.7376 69.1191 27.6669C66.6481 26.7217 66.6405 26.6983 68.1421 24.6376C69.0363 23.4104 69.2576 23.0029 69.2576 22.5824C69.2576 21.8474 68.9281 21.6826 66.7605 21.3324C64.9494 21.0401 64.5509 20.8622 64.5509 20.3472C64.5509 20.2493 64.8818 19.4613 65.2865 18.5947C66.0787 16.898 66.1897 16.2189 65.7415 15.8128C65.5009 15.5949 65.1783 15.5639 63.4519 15.5922C61.6456 15.6225 61.4146 15.597 61.1644 15.3454C60.8907 15.0703 60.8934 15.0317 61.3209 13.2481C61.8448 11.0626 61.8469 11.0095 61.416 10.6048C60.9789 10.1939 60.7059 10.2008 58.6989 10.6731C57.2367 11.0178 56.9947 11.0405 56.6624 10.8627L56.2852 10.6606L56.3893 8.64336L56.4941 6.62676L56.117 6.24964C55.9095 6.04212 55.6151 5.87252 55.462 5.87252C55.3097 5.87252 54.4017 6.2331 53.4448 6.67296C51.8467 7.40858 51.675 7.45753 51.3296 7.2769C50.9849 7.09627 50.9276 6.9184 50.6332 5.12104C50.2934 3.0417 50.0831 2.637 49.3447 2.637C49.1696 2.637 48.3016 3.15753 47.4157 3.79388C45.9609 4.83906 45.7658 4.93765 45.4032 4.81148C45.1033 4.70669 44.9289 4.47848 44.7158 3.91108C44.5579 3.49328 44.256 2.68802 44.0436 2.122C43.6148 0.980291 43.3756 0.724511 42.733 0.724511C42.3745 0.724511 42.0498 0.982359 40.886 2.19094C39.0569 4.09102 39.0501 4.09033 37.705 1.88414C37.1672 1.00235 36.6053 0.215019 36.4557 0.135044C36.1193 -0.0455877 35.7235 -0.0448984 35.414 0.136423M37.081 6.77913C38.6743 7.91325 37.827 10.5793 35.8731 10.5793C33.9772 10.5793 33.0223 8.2952 34.3764 6.99837C35.1403 6.26619 36.2358 6.17725 37.081 6.77913ZM35.0775 13.821C36.122 14.2181 36.5508 13.9796 38.9356 11.681L40.7274 9.95329L41.4858 10.0539C43.8644 10.3697 48.5953 12.4477 51.3137 14.3705C53.8115 16.1382 57.1312 19.7384 58.5459 22.2142L58.8486 22.7444L57.5083 25.7641C56.7706 27.4249 56.1673 28.9583 56.1673 29.1727C56.1673 29.667 56.4914 30.4488 56.8037 30.7073C56.9354 30.817 58.1867 31.4195 59.5842 32.0462L62.1241 33.1866L62.224 33.8326C62.3529 34.6744 62.3702 36.742 62.253 37.3294L62.1613 37.7885H60.7114C59.0299 37.7885 59.1595 37.6382 59.0685 39.701C59.0023 41.1964 58.641 42.023 57.8192 42.558C56.4803 43.4316 54.2693 43.273 53.3317 42.2368C53.1876 42.0775 52.9077 41.2771 52.7091 40.4573C52.1293 38.0629 51.3503 36.7185 49.7852 35.4107C49.2909 34.9977 48.8869 34.6123 48.8869 34.5537C48.8869 34.4958 49.4302 34.038 50.0948 33.5382C52.5147 31.7139 53.906 29.5905 54.059 27.487C54.3507 23.4752 51.1545 19.7357 46.4001 18.5237C45.2729 18.2362 44.7917 18.2272 30.8465 18.2272C22.9318 18.2272 16.4559 18.1755 16.4559 18.1128C16.4559 17.9645 18.2146 16.2575 19.2509 15.4012C22.0962 13.0489 25.7922 11.1977 29.62 10.2091L30.9437 9.86642L32.8245 11.7734C33.8593 12.822 34.8735 13.7431 35.0775 13.821M11.3947 26.0909C12.2614 26.6583 12.6164 28.084 12.1049 28.941C11.3134 30.2675 9.30852 30.3233 8.51636 29.041C7.36431 27.1781 9.58291 24.9037 11.3947 26.0909M62.4474 26.1633C64.7143 27.5456 62.9576 30.9459 60.5308 29.8724C58.9106 29.1554 58.8589 26.941 60.4432 26.1329C61.1044 25.7958 61.8641 25.8075 62.4474 26.1633ZM18.074 34.6268V43.0834H10.5978L10.3013 41.7969C9.71804 39.2632 9.4726 36.642 9.61945 34.4951L9.72218 32.9866L12.2924 31.8339C13.905 31.1114 14.9419 30.5605 15.0756 30.3557C15.6603 29.4643 15.6044 28.8273 14.784 27.0154L14.4007 26.1695H18.074V34.6268M39.5981 26.5376C41.199 26.9541 42.045 27.8014 42.047 28.9893C42.0484 29.8614 41.6161 30.4088 40.5441 30.8928C39.785 31.2361 39.6643 31.2444 34.8776 31.2913L29.9874 31.3382V26.3163H34.3688C37.7911 26.3163 38.9363 26.3646 39.5981 26.5376ZM37.9463 38.6731C38.7398 38.8937 39.6781 39.5831 40.1594 40.2995C40.6647 41.0523 40.9605 42.0313 41.6609 45.2744C42.2525 48.0156 42.633 48.9119 43.6989 50.0784C45.0192 51.5228 44.7131 51.4669 51.3082 51.4669C54.4665 51.4669 57.0498 51.5173 57.0498 51.5793C57.0498 51.6903 54.8746 54.2619 54.7809 54.2619C54.754 54.2619 53.6178 54.024 52.2562 53.7331C48.4112 52.912 48.2726 53.0085 47.3901 57.1293L46.8227 59.7767L46.3105 60.029C45.4556 60.451 42.6772 61.3196 41.2369 61.6161C38.857 62.1056 36.2668 62.2711 33.9903 62.0787C30.1095 61.7499 24.9704 60.2441 24.7698 59.3761C24.727 59.192 24.4685 58.0007 24.1962 56.728C23.9232 55.4553 23.5915 54.2481 23.4592 54.0454C22.8228 53.0747 22.1534 53.0147 19.2095 53.6662C18.0947 53.913 17.1219 54.1144 17.0474 54.1144C16.9075 54.1144 14.8385 51.722 14.8385 51.5607C14.8385 51.5104 19.7528 51.4518 25.7591 51.4311L36.6798 51.3938L36.7191 47.5144C36.7466 44.7753 36.7087 43.575 36.5901 43.4329C36.4578 43.273 35.7532 43.2309 33.205 43.2309H29.9874V38.5242L33.7014 38.5249C35.7435 38.5255 37.6539 38.5924 37.9463 38.6731ZM21.1185 56.315C22.8552 57.3733 22.0224 60.1462 19.9686 60.1442C17.8623 60.1428 17.0819 57.3954 18.8765 56.3006C19.4701 55.9386 20.5132 55.9455 21.1185 56.315ZM52.9194 56.4309C53.7709 57.0548 54.0542 58.353 53.5268 59.2176C52.1417 61.4892 48.678 59.6836 49.8349 57.2933C50.4037 56.1192 51.9156 55.6959 52.9194 56.4309Z" fill="#7D7D7D"/>
</svg>
