<svg width="72" height="72" viewBox="0 0 72 72" fill="none" xmlns="http://www.w3.org/2000/svg">
<g id="Logos/sqlite-original">
<path id="Vector" d="M39.0938 55.7865C39.0606 55.3759 39.0409 55.1115 39.0409 55.1115C39.0409 55.1115 37.8001 46.7364 36.3207 44.2361C36.0878 43.8384 36.3449 42.2145 36.9996 39.8036C37.3821 40.4612 38.9909 43.2866 39.316 44.1967C39.6805 45.2227 39.7548 45.5169 39.7548 45.5169C39.7548 45.5169 38.8716 40.9708 37.4237 38.3186C37.7757 37.1364 38.1515 35.9615 38.551 34.7946C39.0983 35.7564 40.4146 38.0902 40.7042 38.9008C40.7616 39.0656 40.8123 39.2062 40.8561 39.3362C40.8691 39.2591 40.8843 39.1821 40.8978 39.1033C40.5659 37.6948 39.9134 35.2446 39.0213 33.4322C41.0013 23.1227 47.7574 9.34368 54.6812 3.19556H9.50631C6.47612 3.19556 4 5.67393 4 8.70187V58.5225C4 61.5504 6.47837 64.0288 9.50687 64.0288H39.2614C39.036 61.2876 38.9802 58.5351 39.0944 55.7871" fill="#7D7D7D"/>
<path id="Vector_2" d="M36.9995 39.8036C37.382 40.4606 38.9907 43.2844 39.3153 44.1962C39.6803 45.2222 39.7546 45.5164 39.7546 45.5164C39.7546 45.5164 38.8715 40.9703 37.4236 38.3181C37.7758 37.1351 38.1516 35.9592 38.5509 34.7912C39.0498 35.6726 40.1945 37.6988 40.6051 38.6567L40.6512 38.1161C40.2867 36.7121 39.7327 34.8728 39.0211 33.4316C40.8447 23.9417 46.7161 11.511 53.042 4.80151H9.5056C8.47153 4.80241 7.48006 5.21355 6.7488 5.94469C6.01755 6.67584 5.60627 7.66725 5.60522 8.70133V54.8882C15.4642 51.102 27.3537 47.6432 37.5862 47.7928C37.2082 46.3275 36.7756 45.0028 36.3205 44.2356C36.0877 43.8379 36.3447 42.2123 36.9995 39.8036" fill="#6A6A6A"/>
<path id="Vector_3" d="M65.222 1.5643C62.1282 -1.19532 58.3797 -0.0855107 54.6841 3.19499C54.1133 3.70561 53.5664 4.24224 53.045 4.80318C46.7168 11.5116 40.8477 23.9411 39.0241 33.4316C39.734 34.8733 40.2897 36.7121 40.652 38.1161C40.7465 38.4761 40.832 38.8147 40.9006 39.1027C41.0609 39.7817 41.1464 40.2255 41.1464 40.2255C41.1464 40.2255 41.0896 40.0101 40.8567 39.3356C40.8128 39.2062 40.7622 39.0634 40.7048 38.9008C40.6806 38.8305 40.6458 38.7467 40.6081 38.6567C40.1952 37.6987 39.0528 35.6726 38.5516 34.794C38.123 36.0596 37.7433 37.2465 37.4243 38.3181C38.8745 40.9702 39.7581 45.5164 39.7581 45.5164C39.7581 45.5164 39.6811 45.2222 39.3183 44.1962C38.9931 43.2844 37.3827 40.4612 37.0025 39.8036C36.3477 42.2117 36.0884 43.8379 36.3235 44.2361C36.7786 45.0022 37.2089 46.3297 37.5891 47.7928C38.4464 51.093 39.0438 55.1121 39.0438 55.1121C39.0438 55.1121 39.0612 55.3759 39.0966 55.7871C38.9825 58.5349 39.0383 61.2872 39.2637 64.0282C39.5472 67.4651 40.081 70.4199 40.7622 72L41.228 71.7474C40.2261 68.634 39.8195 64.5514 39.9972 59.8472C40.2672 52.6511 41.9221 43.9762 44.9787 34.9346C50.1486 21.2827 57.3188 10.332 63.8798 5.10243C57.8988 10.5036 49.8044 27.9872 47.3806 34.4621C44.6693 41.7133 42.7467 48.5156 41.5863 55.035C43.5831 48.9245 50.0502 46.2994 50.0502 46.2994C50.0502 46.2994 53.221 42.3855 56.9279 36.7999C54.706 37.3078 51.061 38.1735 49.8415 38.6854C48.0415 39.4414 47.5538 39.6979 47.5538 39.6979C47.5538 39.6979 53.3875 36.1474 58.3932 34.5392C65.2748 23.6998 72.7718 8.29968 65.2225 1.56486" fill="#A9A9A9"/>
</g>
</svg>
