<svg width="72" height="72" viewBox="0 0 72 72" fill="none" xmlns="http://www.w3.org/2000/svg">
<path d="M62.0398 9.51412C55.4546 -0.048381 42.5632 -2.81251 32.6362 3.21018L15.8422 13.8864C13.5725 15.3084 11.6273 17.192 10.1331 19.415C8.63893 21.6379 7.62923 24.1504 7.16962 26.7891C6.35399 31.2229 7.06086 35.8024 9.1755 39.7839C7.73069 41.9558 6.75973 44.4078 6.32587 46.98C5.85091 49.6623 5.91419 52.4122 6.51205 55.0698C7.10992 57.7274 8.23041 60.2395 9.80831 62.46C16.4047 72 29.2612 74.7771 39.2102 68.823L56.0171 58.1355C58.2783 56.7076 60.2152 54.8217 61.7029 52.5994C63.1906 50.3771 64.196 47.8676 64.6543 45.2329C65.4604 40.8126 64.7496 36.2497 62.6372 32.2841C67.1023 25.2776 66.8672 16.2641 62.0398 9.51412V9.51412ZM30.9594 63.3864C28.3217 64.072 25.537 63.9308 22.9822 62.9817C20.4274 62.0327 18.2258 60.3217 16.6753 58.0804C14.7285 55.3843 14.0147 52.0554 14.5772 48.7507L14.9062 47.1577L15.21 46.1734L16.1128 46.7707C18.0928 48.2715 20.3091 49.3481 22.6761 50.0754L23.2847 50.2864L23.2161 50.8866C23.157 51.7191 23.4028 52.6551 23.8843 53.3694C24.8687 54.7869 26.5804 55.4676 28.2307 55.0215C28.593 54.9051 28.9468 54.7864 29.25 54.5974L45.9866 43.9234C46.8304 43.3828 47.3687 42.5745 47.5796 41.6137C47.7641 40.6164 47.52 39.5972 46.98 38.79C45.9821 37.4062 44.2839 36.7847 42.6336 37.1976C42.2707 37.3247 41.8843 37.4676 41.5766 37.6543L35.2485 41.6734C29.2612 45.2329 21.5269 43.5606 17.5522 37.8304C16.5951 36.4951 15.9152 34.9816 15.5529 33.3791C15.1906 31.7767 15.1532 30.1179 15.4429 28.5007C15.7332 26.8998 16.3567 25.3777 17.273 24.0332C18.1893 22.6886 19.378 21.5517 20.7619 20.6961L37.4636 10.0198C38.5183 9.36281 39.654 8.88356 40.8847 8.51906C46.2876 7.11281 51.9806 9.23343 55.1689 13.8032C56.2786 15.3657 57.0108 17.1643 57.3078 19.0576C57.6048 20.9509 57.4586 22.8873 56.8806 24.7146L56.5751 25.7102L55.7094 25.1128C53.7107 23.6504 51.481 22.5334 49.113 21.8081L48.5134 21.6321L48.573 21.0324C48.6321 20.1532 48.3862 19.2285 47.9047 18.5124C46.9181 17.0949 45.2087 16.497 43.5583 16.9189C43.1961 17.0376 42.8422 17.154 42.5391 17.343L25.7692 28.1121C24.9255 28.6746 24.3855 29.4587 24.2094 30.4431C24.0339 31.4032 24.2691 32.4579 24.8091 33.2314C25.7698 34.6511 27.5147 35.2485 29.1336 34.8244C29.52 34.7079 29.8828 34.5915 30.177 34.4025L36.5754 30.3221C37.6194 29.6325 38.7906 29.1296 39.9881 28.7994C45.4264 27.3819 51.0975 29.5161 54.2722 34.1083C56.2191 36.8044 56.9683 40.131 56.4277 43.4008C56.1507 44.9976 55.54 46.518 54.6355 47.8628C53.731 49.2075 52.553 50.3464 51.1785 51.2049L34.4419 61.8581C33.3535 62.5159 32.1834 63.0278 30.9617 63.3808L30.9594 63.3864Z" fill="#7D7D7D"/>
</svg>
