<svg width="60" height="60" viewBox="0 0 60 60" fill="none" xmlns="http://www.w3.org/2000/svg">
<g id="Group">
<path id="Vector" d="M30.0571 60H29.9252C13.4246 60 0 46.5714 0 30.066L0 29.934C0 13.4286 13.4246 0 29.9252 0L30.0571 0C46.5577 0 59.9823 13.4286 59.9823 29.934V30.066C59.9823 46.5714 46.5577 60 30.0571 60ZM29.9252 2.03094C14.5433 2.03094 2.03034 14.5476 2.03034 29.934V30.066C2.03034 45.4524 14.5433 57.9691 29.9252 57.9691H30.0571C45.439 57.9691 57.952 45.4524 57.952 30.066V29.934C57.952 14.5476 45.439 2.03094 30.0571 2.03094H29.9252Z" fill="black"/>
<g id="layer1">
<path id="path1009" d="M12.7688 14.1394L26.1325 32.0117L12.6855 46.543H15.7128L27.4867 33.8212L36.9989 46.543H47.2988L33.1839 27.6655L45.7009 14.1394H42.6737L31.8316 25.8559L23.0707 14.1394H12.7708H12.7688ZM17.2193 16.3694H21.95L42.8442 44.313H38.1135L17.2193 16.3694Z" fill="black"/>
</g>
</g>
</svg>
