<?xml version="1.0" encoding="UTF-8" standalone="no"?>
<!-- Created with Inkscape (http://www.inkscape.org/) -->

<svg
   width="210mm"
   height="297mm"
   viewBox="0 0 210 297"
   version="1.1"
   id="svg5"
   inkscape:version="1.2.2 (b0a8486, 2022-12-01)"
   sodipodi:docname="favicon.svg"
   xmlns:inkscape="http://www.inkscape.org/namespaces/inkscape"
   xmlns:sodipodi="http://sodipodi.sourceforge.net/DTD/sodipodi-0.dtd"
   xmlns="http://www.w3.org/2000/svg"
   xmlns:svg="http://www.w3.org/2000/svg">
  <sodipodi:namedview
     id="namedview7"
     pagecolor="#505050"
     bordercolor="#eeeeee"
     borderopacity="1"
     inkscape:showpageshadow="0"
     inkscape:pageopacity="0"
     inkscape:pagecheckerboard="0"
     inkscape:deskcolor="#505050"
     inkscape:document-units="mm"
     showgrid="false"
     inkscape:zoom="0.77593294"
     inkscape:cx="380.18749"
     inkscape:cy="527.10741"
     inkscape:window-width="1918"
     inkscape:window-height="1061"
     inkscape:window-x="0"
     inkscape:window-y="17"
     inkscape:window-maximized="1"
     inkscape:current-layer="layer1" />
  <defs
     id="defs2" />
  <g
     inkscape:label="Layer 1"
     inkscape:groupmode="layer"
     id="layer1">
    <circle
       style="fill:#000000;stroke:#161616;stroke-width:2.64583;paint-order:stroke markers fill"
       id="path172"
       cx="105.44916"
       cy="132.7626"
       r="101.44214" />
    <path
       style="fill:#8e8e8e;fill-opacity:1;stroke-width:0.687041"
       d="m 73.294546,190.74382 c 0.74339,-0.66128 9.79444,-15.88781 20.11347,-33.83677 10.319024,-17.94896 20.797844,-36.16021 23.286224,-40.46947 2.48841,-4.30924 4.83086,-7.86468 5.20541,-7.90096 0.93587,-0.0906 15.53946,25.21082 14.91288,25.8374 -0.27655,0.27655 -4.30771,0.59023 -8.95812,0.69703 l -8.45527,0.19423 -15.8216,27.31746 c -9.308074,16.07124 -15.660024,27.73865 -15.429074,28.34048 0.57973,1.51078 99.208804,1.55451 99.788364,0.0442 0.20799,-0.54191 -5.97839,-11.96434 -13.86068,-25.5923 -7.82993,-13.53734 -17.79555,-30.79682 -22.14581,-38.35429 -4.35029,-7.55743 -9.36172,-16.21416 -11.13651,-19.23715 -1.77479,-3.02299 -6.56792,-11.293247 -10.65135,-18.378367 -4.08342,-7.0851 -7.7699,-12.88201 -8.19214,-12.88201 -0.42225,0 -4.82635,7.03358 -9.78691,15.63019 -4.96051,8.596607 -16.347274,28.306097 -25.303914,43.798897 -27.776487,48.04665 -31.398068,54.51685 -30.934623,55.26672 0.273338,0.44227 3.499032,0.72713 8.233713,0.72713 6.44072,0 8.01762,-0.20748 9.13594,-1.20232 z m 42.084214,-15.87994 c 0,-1.35114 21.84768,-38.22456 22.64822,-38.22456 0.76911,0 22.68807,36.99424 22.69412,38.30256 0.001,0.2834 -10.20017,0.51529 -22.66998,0.51529 -12.46978,0 -22.67236,-0.26699 -22.67236,-0.59329 z"
       id="path1816"
       sodipodi:nodetypes="sssssscssscssssssssssssss" />
    <path
       style="fill:#feffff;fill-opacity:1;stroke-width:0.542216"
       d="m 94.090633,199.52728 c -4.324173,0.10912 -9.287263,-0.023 -11.028976,-0.30125 -1.741783,-0.27512 -5.157746,-1.03271 -7.591027,-1.68385 -2.433281,-0.65092 -6.34538,-1.98925 -8.693438,-2.97361 -2.348129,-0.98436 -5.886127,-2.75836 -7.862159,-3.94223 -1.976054,-1.18385 -5.603607,-3.77107 -8.061215,-5.7494 -2.457618,-1.97834 -5.814271,-5.18343 -7.459225,-7.12241 -1.644953,-1.93899 -3.932232,-4.91252 -5.082821,-6.6079 -1.150589,-1.69537 -3.08039,-5.04923 -4.288435,-7.45316 -1.208057,-2.40385 -2.832874,-6.3078 -3.610699,-8.67545 -0.777823,-2.36758 -1.774298,-6.34969 -2.214377,-8.84906 -0.440116,-2.49929 -0.800156,-7.65228 -0.800156,-11.45103 0,-3.79866 0.366725,-9.00975 0.814958,-11.58005 0.448262,-2.57031 1.447842,-6.55864 2.221378,-8.86297 0.77352,-2.30425 2.387048,-6.15018 3.585595,-8.54642 1.198546,-2.39625 3.295722,-5.942774 4.660357,-7.881214 1.364648,-1.938371 3.715348,-4.957482 5.223774,-6.709111 1.508426,-1.751629 4.694565,-4.757593 7.080306,-6.67998 2.385752,-1.922317 6.045705,-4.501613 8.133232,-5.731586 2.087514,-1.230055 5.658631,-3.023096 7.935761,-3.984637 2.27712,-0.961471 6.791104,-2.429829 10.031003,-3.263102 5.221526,-1.3428 6.876257,-1.517242 14.566186,-1.535301 5.277258,-0.01541 10.162105,0.273588 12.470895,0.729297 2.08754,0.412686 5.99148,1.477659 8.67545,2.367507 2.68397,0.889837 6.70996,2.542946 8.94658,3.673623 2.23662,1.130688 5.89659,3.33389 8.13321,4.896008 2.23662,1.562117 6.17892,4.982678 8.76052,7.601255 2.58168,2.618565 6.18062,7.01773 7.99772,9.775937 1.81703,2.758194 3.30375,5.216004 3.30375,5.461834 0,0.24593 -1.90393,0.44726 -4.23101,0.44726 -4.23095,0 -4.23095,0 -6.45359,-3.11778 -1.22236,-1.71473 -3.52662,-4.566384 -5.12048,-6.336922 -1.59377,-1.770534 -4.76036,-4.600122 -7.03671,-6.287971 -2.27636,-1.687848 -5.69316,-3.934617 -7.5928,-4.992826 -1.89964,-1.058219 -5.52785,-2.647617 -8.06273,-3.531928 -2.53481,-0.8843 -6.31679,-1.946898 -8.40433,-2.361195 -2.31378,-0.45879 -6.864727,-0.728531 -11.657595,-0.689343 -6.571242,0.05375 -8.752458,0.295875 -13.28427,1.472435 -3.265407,0.848031 -7.798134,2.597969 -11.395384,4.399559 -3.395749,1.700591 -7.924468,4.552628 -10.49518,6.609434 -2.487076,1.989932 -5.856819,5.227063 -7.488312,7.193793 -1.631493,1.96665 -4.172539,5.525544 -5.646769,7.908724 -1.474243,2.3831 -3.420805,6.25286 -4.325701,8.5993 -0.904896,2.34652 -2.116103,6.49662 -2.691543,9.22239 -0.699792,3.31497 -1.04908,7.1397 -1.054756,11.55055 -0.0046,3.6269 0.342824,8.43068 0.772249,10.675 0.429425,2.24431 1.514207,6.18369 2.41067,8.75414 0.896462,2.57054 2.510846,6.24886 3.587519,8.17416 1.076673,1.92532 3.413136,5.43218 5.192149,7.79307 1.779002,2.36098 4.998225,5.81512 7.153817,7.67588 2.155582,1.86083 5.22367,4.21841 6.81792,5.23906 1.594321,1.02064 4.888317,2.80892 7.319907,3.97403 2.431671,1.16512 6.83591,2.72969 9.787082,3.4769 2.951253,0.74698 7.735975,1.51386 10.632737,1.70368 3.155361,0.20673 7.416653,0.0768 10.629503,-0.32738 2.949397,-0.37042 7.314597,-1.28155 9.700317,-2.0256 2.38579,-0.74391 6.27467,-2.31463 8.6421,-3.49004 2.36735,-1.17549 6.23694,-3.52885 8.59914,-5.2296 2.3622,-1.70076 5.72359,-4.61966 7.46984,-6.48632 1.74618,-1.86675 4.2075,-4.85827 5.46953,-6.64786 2.29472,-3.25381 2.29472,-3.25381 6.52567,-3.25381 2.32708,0 4.23101,0.12604 4.23101,0.2805 0,0.15447 -0.99696,1.922 -2.21556,3.92777 -1.21853,2.00578 -3.56681,5.29855 -5.21846,7.3173 -1.65158,2.01875 -4.36943,4.91936 -6.03968,6.44583 -1.67016,1.52653 -4.75074,3.99463 -6.84581,5.48481 -2.095,1.49011 -6.30089,3.91233 -9.34643,5.38269 -3.32735,1.60646 -8.08824,3.32727 -11.92872,4.31164 -5.32044,1.36377 -7.70876,1.67155 -14.253487,1.83677 z m -0.542566,-13.52911 c -4.820377,0.12757 -8.523364,-0.0615 -10.844294,-0.54563 -1.938453,-0.40731 -5.08574,-1.26779 -6.994064,-1.91286 -1.908254,-0.64477 -4.958248,-1.91886 -6.777654,-2.83052 -1.819418,-0.91167 -4.77205,-2.70064 -6.561326,-3.97557 -1.78937,-1.27485 -5.098633,-4.2351 -7.35401,-6.57816 -2.255376,-2.34314 -5.271834,-6.15487 -6.703251,-8.47042 -1.431417,-2.31562 -3.286235,-5.97557 -4.121848,-8.13328 -0.83559,-2.15763 -1.935523,-5.87499 -2.444297,-8.26078 -0.569914,-2.67267 -0.931898,-6.83521 -0.942937,-10.84429 -0.01378,-4.95287 0.270506,-7.6718 1.18987,-11.38648 0.664287,-2.68396 2.387328,-7.3199 3.828973,-10.30212 1.441645,-2.98215 3.825822,-7.00813 5.298176,-8.94658 1.472355,-1.93837 4.239772,-4.971384 6.149822,-6.739994 1.91005,-1.768544 5.167661,-4.312335 7.239132,-5.652818 2.071564,-1.340414 5.609481,-3.213535 7.862158,-4.162473 2.252689,-0.948856 5.803754,-2.180301 7.891292,-2.736534 2.952851,-0.786706 5.661341,-1.006185 12.199836,-0.988589 6.875108,0.01541 9.193565,0.236692 12.742015,1.19777 2.3858,0.646309 6.77774,2.389633 9.75988,3.873907 2.98222,1.484193 7.08405,3.957971 9.11527,5.497268 2.0312,1.539297 5.18971,4.537119 7.0188,6.661773 3.32566,3.86306 3.32566,3.86306 -21.04398,4.1697 -21.338088,0.2682 -24.740671,0.4265 -27.351857,1.2717 -1.640192,0.53102 -4.425298,1.72911 -6.189067,2.66307 -1.763769,0.93386 -4.714408,3.22037 -6.556866,5.08113 -1.842551,1.86066 -4.098773,4.79424 -5.013816,6.51905 -0.915125,1.72473 -2.089461,4.5999 -2.609576,6.38926 -0.570215,1.96143 -0.945856,5.08329 -0.945856,7.86208 0,2.7868 0.373486,5.88582 0.945555,7.83894 0.520265,1.77662 1.513083,4.35015 2.206724,5.71899 0.693954,1.36892 2.319087,3.74802 3.612077,5.28701 1.293071,1.53898 3.44893,3.62668 4.790954,4.63917 1.341943,1.01257 3.415951,2.33784 4.60881,2.94518 1.192859,0.60711 3.510869,1.54197 5.151061,2.07724 2.622643,0.85586 5.920404,1.01018 27.351857,1.27984 24.36964,0.30664 24.36964,0.30664 21.04398,4.16962 -1.82909,2.12474 -4.9876,5.12247 -7.0188,6.66177 -2.03122,1.5393 -6.13305,4.01308 -9.11527,5.49735 -2.98214,1.48419 -7.37408,3.20992 -9.75988,3.83486 -3.05898,0.80131 -6.495387,1.19355 -11.657593,1.3305 z"
       id="path921" />
  </g>
</svg>
